<?xml version="1.0" encoding="UTF-8" standalone="no"?>
<!DOCTYPE svg PUBLIC "-//W3C//DTD SVG 1.1//EN" "http://www.w3.org/Graphics/SVG/1.1/DTD/svg11.dtd">
<!-- Generated by graphviz version 2.40.1 (20161225.0304)
 -->
<!-- Title: G Pages: 1 -->
<svg width="773pt" height="672pt" viewBox="0.00 0.00 773.46 672.00" xmlns="http://www.w3.org/2000/svg" xmlns:xlink="http://www.w3.org/1999/xlink">
<g id="graph0" class="graph" transform="scale(1 1) rotate(0) translate(4 668)">
<title>G</title>
<polygon fill="#ffffff" stroke="transparent" points="-4,4 -4,-668 769.4644,-668 769.4644,4 -4,4"/>
<g id="clust1" class="cluster">
<title>cluster_3658e2d9</title>
<polygon fill="none" stroke="#000000" stroke-dasharray="1,5" points="533.7862,-8 533.7862,-517 757.4644,-517 757.4644,-8 533.7862,-8"/>
<text text-anchor="middle" x="645.6253" y="-500.4" font-family="Times,serif" font-size="14.00" fill="#000000">File: drawsteps</text>
</g>
<g id="clust2" class="cluster">
<title>cluster_314306b6</title>
<polygon fill="none" stroke="#000000" stroke-dasharray="1,5" points="8,-525 8,-656 718.1916,-656 718.1916,-525 8,-525"/>
<text text-anchor="middle" x="363.0958" y="-639.4" font-family="Times,serif" font-size="14.00" fill="#000000">File: main</text>
</g>
<!-- node_0f22ac85 -->
<g id="node1" class="node">
<title>node_0f22ac85</title>
<path fill="#6db33f" stroke="#000000" d="M703.6331,-268C703.6331,-268 587.6175,-268 587.6175,-268 581.6175,-268 575.6175,-262 575.6175,-256 575.6175,-256 575.6175,-244 575.6175,-244 575.6175,-238 581.6175,-232 587.6175,-232 587.6175,-232 703.6331,-232 703.6331,-232 709.6331,-232 715.6331,-238 715.6331,-244 715.6331,-244 715.6331,-256 715.6331,-256 715.6331,-262 709.6331,-268 703.6331,-268"/>
<text text-anchor="middle" x="645.6253" y="-245.8" font-family="Times,serif" font-size="14.00" fill="#000000">245: drawAvgCircle()</text>
</g>
<!-- node_d20fd905 -->
<g id="node2" class="node">
<title>node_d20fd905</title>
<path fill="#6db33f" stroke="#000000" d="M697.1865,-214C697.1865,-214 594.0641,-214 594.0641,-214 588.0641,-214 582.0641,-208 582.0641,-202 582.0641,-202 582.0641,-190 582.0641,-190 582.0641,-184 588.0641,-178 594.0641,-178 594.0641,-178 697.1865,-178 697.1865,-178 703.1865,-178 709.1865,-184 709.1865,-190 709.1865,-190 709.1865,-202 709.1865,-202 709.1865,-208 703.1865,-214 697.1865,-214"/>
<text text-anchor="middle" x="645.6253" y="-191.8" font-family="Times,serif" font-size="14.00" fill="#000000">3: drawBaseBeam()</text>
</g>
<!-- node_e92ea3c4 -->
<g id="node3" class="node">
<title>node_e92ea3c4</title>
<path fill="#6db33f" stroke="#000000" d="M718.1974,-160C718.1974,-160 573.0532,-160 573.0532,-160 567.0532,-160 561.0532,-154 561.0532,-148 561.0532,-148 561.0532,-136 561.0532,-136 561.0532,-130 567.0532,-124 573.0532,-124 573.0532,-124 718.1974,-124 718.1974,-124 724.1974,-124 730.1974,-130 730.1974,-136 730.1974,-136 730.1974,-148 730.1974,-148 730.1974,-154 724.1974,-160 718.1974,-160"/>
<text text-anchor="middle" x="645.6253" y="-137.8" font-family="Times,serif" font-size="14.00" fill="#000000">196: drawBaseComposite()</text>
</g>
<!-- node_77e3152a -->
<g id="node4" class="node">
<title>node_77e3152a</title>
<path fill="#6db33f" stroke="#000000" d="M705.5097,-106C705.5097,-106 585.7409,-106 585.7409,-106 579.7409,-106 573.7409,-100 573.7409,-94 573.7409,-94 573.7409,-82 573.7409,-82 573.7409,-76 579.7409,-70 585.7409,-70 585.7409,-70 705.5097,-70 705.5097,-70 711.5097,-70 717.5097,-76 717.5097,-82 717.5097,-82 717.5097,-94 717.5097,-94 717.5097,-100 711.5097,-106 705.5097,-106"/>
<text text-anchor="middle" x="645.6253" y="-83.8" font-family="Times,serif" font-size="14.00" fill="#000000">105: drawBaseImage()</text>
</g>
<!-- node_ff4d77d0 -->
<g id="node5" class="node">
<title>node_ff4d77d0</title>
<path fill="#6db33f" stroke="#000000" d="M726.5083,-52C726.5083,-52 564.7423,-52 564.7423,-52 558.7423,-52 552.7423,-46 552.7423,-40 552.7423,-40 552.7423,-28 552.7423,-28 552.7423,-22 558.7423,-16 564.7423,-16 564.7423,-16 726.5083,-16 726.5083,-16 732.5083,-16 738.5083,-22 738.5083,-28 738.5083,-28 738.5083,-40 738.5083,-40 738.5083,-46 732.5083,-52 726.5083,-52"/>
<text text-anchor="middle" x="645.6253" y="-29.8" font-family="Times,serif" font-size="14.00" fill="#000000">428: drawGroundtruthImage()</text>
</g>
<!-- node_13147fa1 -->
<g id="node6" class="node">
<title>node_13147fa1</title>
<path fill="#6db33f" stroke="#000000" d="M710.6345,-484C710.6345,-484 580.6161,-484 580.6161,-484 574.6161,-484 568.6161,-478 568.6161,-472 568.6161,-472 568.6161,-460 568.6161,-460 568.6161,-454 574.6161,-448 580.6161,-448 580.6161,-448 710.6345,-448 710.6345,-448 716.6345,-448 722.6345,-454 722.6345,-460 722.6345,-460 722.6345,-472 722.6345,-472 722.6345,-478 716.6345,-484 710.6345,-484"/>
<text text-anchor="middle" x="645.6253" y="-461.8" font-family="Times,serif" font-size="14.00" fill="#000000">282: drawProbeLayout()</text>
</g>
<!-- node_f9720d33 -->
<g id="node7" class="node">
<title>node_f9720d33</title>
<path fill="#6db33f" stroke="#000000" d="M737.3037,-430C737.3037,-430 553.9469,-430 553.9469,-430 547.9469,-430 541.9469,-424 541.9469,-418 541.9469,-418 541.9469,-406 541.9469,-406 541.9469,-400 547.9469,-394 553.9469,-394 553.9469,-394 737.3037,-394 737.3037,-394 743.3037,-394 749.3037,-400 749.3037,-406 749.3037,-406 749.3037,-418 749.3037,-418 749.3037,-424 743.3037,-430 737.3037,-430"/>
<text text-anchor="middle" x="645.6253" y="-407.8" font-family="Times,serif" font-size="14.00" fill="#000000">362: drawProbeLayoutSampling()</text>
</g>
<!-- node_1a883a5b -->
<g id="node8" class="node">
<title>node_1a883a5b</title>
<path fill="#6db33f" stroke="#000000" d="M705.5251,-376C705.5251,-376 585.7255,-376 585.7255,-376 579.7255,-376 573.7255,-370 573.7255,-364 573.7255,-364 573.7255,-352 573.7255,-352 573.7255,-346 579.7255,-340 585.7255,-340 585.7255,-340 705.5251,-340 705.5251,-340 711.5251,-340 717.5251,-346 717.5251,-352 717.5251,-352 717.5251,-364 717.5251,-364 717.5251,-370 711.5251,-376 705.5251,-376"/>
<text text-anchor="middle" x="645.6253" y="-353.8" font-family="Times,serif" font-size="14.00" fill="#000000">393: drawResampled()</text>
</g>
<!-- node_2dd91a21 -->
<g id="node9" class="node">
<title>node_2dd91a21</title>
<path fill="#6db33f" stroke="#000000" d="M708.7524,-322C708.7524,-322 582.4982,-322 582.4982,-322 576.4982,-322 570.4982,-316 570.4982,-310 570.4982,-310 570.4982,-298 570.4982,-298 570.4982,-292 576.4982,-286 582.4982,-286 582.4982,-286 708.7524,-286 708.7524,-286 714.7524,-286 720.7524,-292 720.7524,-298 720.7524,-298 720.7524,-310 720.7524,-310 720.7524,-316 714.7524,-322 708.7524,-322"/>
<text text-anchor="middle" x="645.6253" y="-299.8" font-family="Times,serif" font-size="14.00" fill="#000000">483: drawVirtualSEM()</text>
</g>
<!-- node_c29f2f9f -->
<g id="node10" class="node">
<title>node_c29f2f9f</title>
<path fill="#966f33" stroke="#000000" d="M88.0432,-569C88.0432,-569 27.9856,-569 27.9856,-569 21.9856,-569 15.9856,-563 15.9856,-557 15.9856,-557 15.9856,-545 15.9856,-545 15.9856,-539 21.9856,-533 27.9856,-533 27.9856,-533 88.0432,-533 88.0432,-533 94.0432,-533 100.0432,-539 100.0432,-545 100.0432,-545 100.0432,-557 100.0432,-557 100.0432,-563 94.0432,-569 88.0432,-569"/>
<text text-anchor="middle" x="58.0144" y="-546.8" font-family="Times,serif" font-size="14.00" fill="#000000">0: (global)()</text>
</g>
<!-- node_5f038918 -->
<g id="node12" class="node">
<title>node_5f038918</title>
<path fill="#cccccc" stroke="#000000" d="M282.4911,-569C282.4911,-569 156.8323,-569 156.8323,-569 150.8323,-569 144.8323,-563 144.8323,-557 144.8323,-557 144.8323,-545 144.8323,-545 144.8323,-539 150.8323,-533 156.8323,-533 156.8323,-533 282.4911,-533 282.4911,-533 288.4911,-533 294.4911,-539 294.4911,-545 294.4911,-545 294.4911,-557 294.4911,-557 294.4911,-563 288.4911,-569 282.4911,-569"/>
<text text-anchor="middle" x="219.6617" y="-546.8" font-family="Times,serif" font-size="14.00" fill="#000000">61: UpdateBaseImage()</text>
</g>
<!-- node_c29f2f9f&#45;&gt;node_5f038918 -->
<g id="edge1" class="edge">
<title>node_c29f2f9f-&gt;node_5f038918</title>
<path fill="none" stroke="#cc79a7" stroke-width="2" d="M100.0633,-551C100.0633,-551 134.944,-551 134.944,-551"/>
<polygon fill="#cc79a7" stroke="#cc79a7" stroke-width="2" points="134.9441,-554.5001 144.944,-551 134.944,-547.5001 134.9441,-554.5001"/>
</g>
<!-- node_ddd9e932 -->
<g id="node11" class="node">
<title>node_ddd9e932</title>
<path fill="#cccccc" stroke="#000000" d="M480.8212,-569C480.8212,-569 364.2596,-569 364.2596,-569 358.2596,-569 352.2596,-563 352.2596,-557 352.2596,-557 352.2596,-545 352.2596,-545 352.2596,-539 358.2596,-533 364.2596,-533 364.2596,-533 480.8212,-533 480.8212,-533 486.8212,-533 492.8212,-539 492.8212,-545 492.8212,-545 492.8212,-557 492.8212,-557 492.8212,-563 486.8212,-569 480.8212,-569"/>
<text text-anchor="middle" x="422.5404" y="-546.8" font-family="Times,serif" font-size="14.00" fill="#000000">71: OnImageLoaded()</text>
</g>
<!-- node_ddd9e932&#45;&gt;node_0f22ac85 -->
<g id="edge2" class="edge">
<title>node_ddd9e932-&gt;node_0f22ac85</title>
<path fill="none" stroke="#56b4e9" stroke-width="2" d="M440.4644,-532.6242C440.4644,-467.2727 440.4644,-250 440.4644,-250 440.4644,-250 565.5944,-250 565.5944,-250"/>
<polygon fill="#56b4e9" stroke="#56b4e9" stroke-width="2" points="565.5944,-253.5001 575.5944,-250 565.5943,-246.5001 565.5944,-253.5001"/>
</g>
<!-- node_ddd9e932&#45;&gt;node_d20fd905 -->
<g id="edge3" class="edge">
<title>node_ddd9e932-&gt;node_d20fd905</title>
<path fill="none" stroke="#56b4e9" stroke-width="2" d="M423.4644,-532.9074C423.4644,-460.5654 423.4644,-196 423.4644,-196 423.4644,-196 571.9629,-196 571.9629,-196"/>
<polygon fill="#56b4e9" stroke="#56b4e9" stroke-width="2" points="571.9629,-199.5001 581.9629,-196 571.9629,-192.5001 571.9629,-199.5001"/>
</g>
<!-- node_ddd9e932&#45;&gt;node_e92ea3c4 -->
<g id="edge4" class="edge">
<title>node_ddd9e932-&gt;node_e92ea3c4</title>
<path fill="none" stroke="#56b4e9" stroke-width="2" d="M405.4644,-532.898C405.4644,-453.7442 405.4644,-142 405.4644,-142 405.4644,-142 550.9536,-142 550.9536,-142"/>
<polygon fill="#56b4e9" stroke="#56b4e9" stroke-width="2" points="550.9536,-145.5001 560.9536,-142 550.9535,-138.5001 550.9536,-145.5001"/>
</g>
<!-- node_ddd9e932&#45;&gt;node_77e3152a -->
<g id="edge5" class="edge">
<title>node_ddd9e932-&gt;node_77e3152a</title>
<path fill="none" stroke="#56b4e9" stroke-width="2" d="M387.4644,-532.8499C387.4644,-447.2478 387.4644,-88 387.4644,-88 387.4644,-88 563.7131,-88 563.7131,-88"/>
<polygon fill="#56b4e9" stroke="#56b4e9" stroke-width="2" points="563.7131,-91.5001 573.7131,-88 563.7131,-84.5001 563.7131,-91.5001"/>
</g>
<!-- node_ddd9e932&#45;&gt;node_ff4d77d0 -->
<g id="edge6" class="edge">
<title>node_ddd9e932-&gt;node_ff4d77d0</title>
<path fill="none" stroke="#56b4e9" stroke-width="2" d="M370.4644,-532.9028C370.4644,-441.3975 370.4644,-34 370.4644,-34 370.4644,-34 542.4684,-34 542.4684,-34"/>
<polygon fill="#56b4e9" stroke="#56b4e9" stroke-width="2" points="542.4684,-37.5001 552.4684,-34 542.4683,-30.5001 542.4684,-37.5001"/>
</g>
<!-- node_ddd9e932&#45;&gt;node_13147fa1 -->
<g id="edge7" class="edge">
<title>node_ddd9e932-&gt;node_13147fa1</title>
<path fill="none" stroke="#56b4e9" stroke-width="2" d="M493.1832,-545C533.252,-545 575.4644,-545 575.4644,-545 575.4644,-545 575.4644,-494.3228 575.4644,-494.3228"/>
<polygon fill="#56b4e9" stroke="#56b4e9" stroke-width="2" points="578.9645,-494.3227 575.4644,-484.3228 571.9645,-494.3228 578.9645,-494.3227"/>
</g>
<!-- node_ddd9e932&#45;&gt;node_f9720d33 -->
<g id="edge8" class="edge">
<title>node_ddd9e932-&gt;node_f9720d33</title>
<path fill="none" stroke="#56b4e9" stroke-width="2" d="M492.8947,-539C524.7789,-539 555.4644,-539 555.4644,-539 555.4644,-539 555.4644,-440.196 555.4644,-440.196"/>
<polygon fill="#56b4e9" stroke="#56b4e9" stroke-width="2" points="558.9645,-440.196 555.4644,-430.196 551.9645,-440.196 558.9645,-440.196"/>
</g>
<!-- node_ddd9e932&#45;&gt;node_1a883a5b -->
<g id="edge9" class="edge">
<title>node_ddd9e932-&gt;node_1a883a5b</title>
<path fill="none" stroke="#56b4e9" stroke-width="2" d="M475.4644,-532.843C475.4644,-484.7983 475.4644,-358 475.4644,-358 475.4644,-358 563.4618,-358 563.4618,-358"/>
<polygon fill="#56b4e9" stroke="#56b4e9" stroke-width="2" points="563.4618,-361.5001 573.4618,-358 563.4617,-354.5001 563.4618,-361.5001"/>
</g>
<!-- node_ddd9e932&#45;&gt;node_2dd91a21 -->
<g id="edge10" class="edge">
<title>node_ddd9e932-&gt;node_2dd91a21</title>
<path fill="none" stroke="#56b4e9" stroke-width="2" d="M458.4644,-532.8375C458.4644,-475.7959 458.4644,-304 458.4644,-304 458.4644,-304 560.3088,-304 560.3088,-304"/>
<polygon fill="#56b4e9" stroke="#56b4e9" stroke-width="2" points="560.3089,-307.5001 570.3088,-304 560.3088,-300.5001 560.3089,-307.5001"/>
</g>
<!-- node_19a66438 -->
<g id="node14" class="node">
<title>node_19a66438</title>
<path fill="#6db33f" stroke="#000000" d="M684.2636,-569C684.2636,-569 606.987,-569 606.987,-569 600.987,-569 594.987,-563 594.987,-557 594.987,-557 594.987,-545 594.987,-545 594.987,-539 600.987,-533 606.987,-533 606.987,-533 684.2636,-533 684.2636,-533 690.2636,-533 696.2636,-539 696.2636,-545 696.2636,-545 696.2636,-557 696.2636,-557 696.2636,-563 690.2636,-569 684.2636,-569"/>
<text text-anchor="middle" x="645.6253" y="-546.8" font-family="Times,serif" font-size="14.00" fill="#000000">83: doUpdate()</text>
</g>
<!-- node_ddd9e932&#45;&gt;node_19a66438 -->
<g id="edge11" class="edge">
<title>node_ddd9e932-&gt;node_19a66438</title>
<path fill="none" stroke="#56b4e9" stroke-width="2" d="M493.1259,-551C493.1259,-551 584.9341,-551 584.9341,-551"/>
<polygon fill="#56b4e9" stroke="#56b4e9" stroke-width="2" points="584.9342,-554.5001 594.9341,-551 584.9341,-547.5001 584.9342,-554.5001"/>
</g>
<!-- node_17e92fb6 -->
<g id="node16" class="node">
<title>node_17e92fb6</title>
<path fill="#6db33f" stroke="#000000" d="M698.258,-623C698.258,-623 592.9926,-623 592.9926,-623 586.9926,-623 580.9926,-617 580.9926,-611 580.9926,-611 580.9926,-599 580.9926,-599 580.9926,-593 586.9926,-587 592.9926,-587 592.9926,-587 698.258,-587 698.258,-587 704.258,-587 710.258,-593 710.258,-599 710.258,-599 710.258,-611 710.258,-611 710.258,-617 704.258,-623 698.258,-623"/>
<text text-anchor="middle" x="645.6253" y="-600.8" font-family="Times,serif" font-size="14.00" fill="#000000">223: updateBeams()</text>
</g>
<!-- node_ddd9e932&#45;&gt;node_17e92fb6 -->
<g id="edge13" class="edge">
<title>node_ddd9e932-&gt;node_17e92fb6</title>
<path fill="none" stroke="#56b4e9" stroke-width="2" d="M492.9071,-557C538.1297,-557 588.4644,-557 588.4644,-557 588.4644,-557 588.4644,-576.8533 588.4644,-576.8533"/>
<polygon fill="#56b4e9" stroke="#56b4e9" stroke-width="2" points="584.9645,-576.8532 588.4644,-586.8533 591.9645,-576.8533 584.9645,-576.8532"/>
</g>
<!-- node_5f038918&#45;&gt;node_ddd9e932 -->
<g id="edge14" class="edge">
<title>node_5f038918-&gt;node_ddd9e932</title>
<path fill="none" stroke="#000000" stroke-width="2" d="M294.3419,-551C294.3419,-551 342.0621,-551 342.0621,-551"/>
<polygon fill="#000000" stroke="#000000" stroke-width="2" points="342.0621,-554.5001 352.0621,-551 342.062,-547.5001 342.0621,-554.5001"/>
</g>
<!-- node_8aa612ce -->
<g id="node13" class="node">
<title>node_8aa612ce</title>
<path fill="#cccccc" stroke="#000000" d="M494.0327,-623C494.0327,-623 351.0481,-623 351.0481,-623 345.0481,-623 339.0481,-617 339.0481,-611 339.0481,-611 339.0481,-599 339.0481,-599 339.0481,-593 345.0481,-587 351.0481,-587 351.0481,-587 494.0327,-587 494.0327,-587 500.0327,-587 506.0327,-593 506.0327,-599 506.0327,-599 506.0327,-611 506.0327,-611 506.0327,-617 500.0327,-623 494.0327,-623"/>
<text text-anchor="middle" x="422.5404" y="-600.8" font-family="Times,serif" font-size="14.00" fill="#000000">136: Utils_SetSpotWidth()</text>
</g>
<!-- node_8aa612ce&#45;&gt;node_19a66438 -->
<g id="edge15" class="edge">
<title>node_8aa612ce-&gt;node_19a66438</title>
<path fill="none" stroke="#d55e00" stroke-width="2" d="M499.4644,-586.9445C499.4644,-575.561 499.4644,-563 499.4644,-563 499.4644,-563 584.9155,-563 584.9155,-563"/>
<polygon fill="#d55e00" stroke="#d55e00" stroke-width="2" points="584.9155,-566.5001 594.9155,-563 584.9155,-559.5001 584.9155,-566.5001"/>
</g>
<!-- node_8aa612ce&#45;&gt;node_17e92fb6 -->
<g id="edge16" class="edge">
<title>node_8aa612ce-&gt;node_17e92fb6</title>
<path fill="none" stroke="#d55e00" stroke-width="2" d="M505.9262,-605C505.9262,-605 570.7956,-605 570.7956,-605"/>
<polygon fill="#d55e00" stroke="#d55e00" stroke-width="2" points="570.7956,-608.5001 580.7956,-605 570.7955,-601.5001 570.7956,-608.5001"/>
</g>
<!-- node_9b98348e -->
<g id="node15" class="node">
<title>node_9b98348e</title>
<path fill="#966f33" stroke="#000000" d="M291.4277,-623C291.4277,-623 147.8957,-623 147.8957,-623 141.8957,-623 135.8957,-617 135.8957,-611 135.8957,-611 135.8957,-599 135.8957,-599 135.8957,-593 141.8957,-587 147.8957,-587 147.8957,-587 291.4277,-587 291.4277,-587 297.4277,-587 303.4277,-593 303.4277,-599 303.4277,-599 303.4277,-611 303.4277,-611 303.4277,-617 297.4277,-623 291.4277,-623"/>
<text text-anchor="middle" x="219.6617" y="-600.8" font-family="Times,serif" font-size="14.00" fill="#000000">98: promptForSpotWidth()</text>
</g>
<!-- node_9b98348e&#45;&gt;node_8aa612ce -->
<g id="edge17" class="edge">
<title>node_9b98348e-&gt;node_8aa612ce</title>
<path fill="none" stroke="#d55e00" stroke-width="2" d="M303.3515,-605C303.3515,-605 329.0429,-605 329.0429,-605"/>
<polygon fill="#d55e00" stroke="#d55e00" stroke-width="2" points="329.0429,-608.5001 339.0429,-605 329.0428,-601.5001 329.0429,-608.5001"/>
</g>
</g>
</svg>