<?xml version="1.0" encoding="UTF-8" standalone="no"?>
<!DOCTYPE svg PUBLIC "-//W3C//DTD SVG 1.1//EN" "http://www.w3.org/Graphics/SVG/1.1/DTD/svg11.dtd">
<!-- Generated by graphviz version 2.40.1 (20161225.0304)
 -->
<!-- Title: G Pages: 1 -->
<svg width="1473pt" height="1227pt" viewBox="0.00 0.00 1473.29 1227.00" xmlns="http://www.w3.org/2000/svg" xmlns:xlink="http://www.w3.org/1999/xlink">
<g id="graph0" class="graph" transform="scale(1 1) rotate(0) translate(4 1223)">
<title>G</title>
<polygon fill="#ffffff" stroke="transparent" points="-4,4 -4,-1223 1469.293,-1223 1469.293,4 -4,4"/>
<g id="clust1" class="cluster">
<title>cluster_c9300877</title>
<polygon fill="none" stroke="#000000" stroke-dasharray="1,5" points="572.5718,-702 572.5718,-1211 796.25,-1211 796.25,-702 572.5718,-702"/>
<text text-anchor="middle" x="684.4109" y="-1194.4" font-family="Times,serif" font-size="14.00" fill="#000000">File: drawsteps</text>
</g>
<g id="clust2" class="cluster">
<title>cluster_3af9cd66</title>
<polygon fill="none" stroke="#000000" stroke-dasharray="1,5" points="8,-756 8,-887 552.5718,-887 552.5718,-756 8,-756"/>
<text text-anchor="middle" x="280.2859" y="-870.4" font-family="Times,serif" font-size="14.00" fill="#000000">File: main</text>
</g>
<g id="clust3" class="cluster">
<title>cluster_0cb83000</title>
<polygon fill="none" stroke="#000000" stroke-dasharray="1,5" points="816.25,-8 816.25,-1111 1457.293,-1111 1457.293,-8 816.25,-8"/>
<text text-anchor="middle" x="1136.7715" y="-1094.4" font-family="Times,serif" font-size="14.00" fill="#000000">File: utils</text>
</g>
<!-- node_42afbacf -->
<g id="node1" class="node">
<title>node_42afbacf</title>
<path fill="#cccccc" stroke="#000000" d="M742.4187,-1124C742.4187,-1124 626.4031,-1124 626.4031,-1124 620.4031,-1124 614.4031,-1118 614.4031,-1112 614.4031,-1112 614.4031,-1100 614.4031,-1100 614.4031,-1094 620.4031,-1088 626.4031,-1088 626.4031,-1088 742.4187,-1088 742.4187,-1088 748.4187,-1088 754.4187,-1094 754.4187,-1100 754.4187,-1100 754.4187,-1112 754.4187,-1112 754.4187,-1118 748.4187,-1124 742.4187,-1124"/>
<text text-anchor="middle" x="684.4109" y="-1101.8" font-family="Times,serif" font-size="14.00" fill="#000000">221: drawAvgCircle()</text>
</g>
<!-- node_efa2ebb6 -->
<g id="node34" class="node">
<title>node_efa2ebb6</title>
<path fill="#6db33f" stroke="#000000" d="M1437.5297,-1024C1437.5297,-1024 1308.5843,-1024 1308.5843,-1024 1302.5843,-1024 1296.5843,-1018 1296.5843,-1012 1296.5843,-1012 1296.5843,-1000 1296.5843,-1000 1296.5843,-994 1302.5843,-988 1308.5843,-988 1308.5843,-988 1437.5297,-988 1437.5297,-988 1443.5297,-988 1449.5297,-994 1449.5297,-1000 1449.5297,-1000 1449.5297,-1012 1449.5297,-1012 1449.5297,-1018 1443.5297,-1024 1437.5297,-1024"/>
<text text-anchor="middle" x="1373.057" y="-1001.8" font-family="Times,serif" font-size="14.00" fill="#000000">250: get_avg_pixel_gs()</text>
</g>
<!-- node_42afbacf&#45;&gt;node_efa2ebb6 -->
<g id="edge1" class="edge">
<title>node_42afbacf-&gt;node_efa2ebb6</title>
<path fill="none" stroke="#cc79a7" stroke-width="2" d="M754.4635,-1106C917.4443,-1106 1308.293,-1106 1308.293,-1106 1308.293,-1106 1308.293,-1034.3415 1308.293,-1034.3415"/>
<polygon fill="#cc79a7" stroke="#cc79a7" stroke-width="2" points="1311.7931,-1034.3415 1308.293,-1024.3415 1304.7931,-1034.3416 1311.7931,-1034.3415"/>
</g>
<!-- node_f7d1a6de -->
<g id="node2" class="node">
<title>node_f7d1a6de</title>
<path fill="#6db33f" stroke="#000000" d="M735.9721,-1178C735.9721,-1178 632.8497,-1178 632.8497,-1178 626.8497,-1178 620.8497,-1172 620.8497,-1166 620.8497,-1166 620.8497,-1154 620.8497,-1154 620.8497,-1148 626.8497,-1142 632.8497,-1142 632.8497,-1142 735.9721,-1142 735.9721,-1142 741.9721,-1142 747.9721,-1148 747.9721,-1154 747.9721,-1154 747.9721,-1166 747.9721,-1166 747.9721,-1172 741.9721,-1178 735.9721,-1178"/>
<text text-anchor="middle" x="684.4109" y="-1155.8" font-family="Times,serif" font-size="14.00" fill="#000000">1: drawBaseBeam()</text>
</g>
<!-- node_0f7056d5 -->
<g id="node3" class="node">
<title>node_0f7056d5</title>
<path fill="#cccccc" stroke="#000000" d="M756.983,-962C756.983,-962 611.8388,-962 611.8388,-962 605.8388,-962 599.8388,-956 599.8388,-950 599.8388,-950 599.8388,-938 599.8388,-938 599.8388,-932 605.8388,-926 611.8388,-926 611.8388,-926 756.983,-926 756.983,-926 762.983,-926 768.983,-932 768.983,-938 768.983,-938 768.983,-950 768.983,-950 768.983,-956 762.983,-962 756.983,-962"/>
<text text-anchor="middle" x="684.4109" y="-939.8" font-family="Times,serif" font-size="14.00" fill="#000000">175: drawBaseComposite()</text>
</g>
<!-- node_4d053972 -->
<g id="node15" class="node">
<title>node_4d053972</title>
<path fill="#cccccc" stroke="#000000" d="M995.8648,-916C995.8648,-916 862.6332,-916 862.6332,-916 856.6332,-916 850.6332,-910 850.6332,-904 850.6332,-904 850.6332,-892 850.6332,-892 850.6332,-886 856.6332,-880 862.6332,-880 862.6332,-880 995.8648,-880 995.8648,-880 1001.8648,-880 1007.8648,-886 1007.8648,-892 1007.8648,-892 1007.8648,-904 1007.8648,-904 1007.8648,-910 1001.8648,-916 995.8648,-916"/>
<text text-anchor="middle" x="929.249" y="-893.8" font-family="Times,serif" font-size="14.00" fill="#000000">48: MakeZoomHandler()</text>
</g>
<!-- node_0f7056d5&#45;&gt;node_4d053972 -->
<g id="edge2" class="edge">
<title>node_0f7056d5-&gt;node_4d053972</title>
<path fill="none" stroke="#0072b2" stroke-width="2" d="M769.0598,-930C813.2808,-930 858.293,-930 858.293,-930 858.293,-930 858.293,-926.2434 858.293,-926.2434"/>
<polygon fill="#0072b2" stroke="#0072b2" stroke-width="2" points="861.7931,-926.2434 858.293,-916.2434 854.7931,-926.2434 861.7931,-926.2434"/>
</g>
<!-- node_752ea27d -->
<g id="node39" class="node">
<title>node_752ea27d</title>
<path fill="#cccccc" stroke="#000000" d="M985.3634,-970C985.3634,-970 873.1346,-970 873.1346,-970 867.1346,-970 861.1346,-964 861.1346,-958 861.1346,-958 861.1346,-946 861.1346,-946 861.1346,-940 867.1346,-934 873.1346,-934 873.1346,-934 985.3634,-934 985.3634,-934 991.3634,-934 997.3634,-940 997.3634,-946 997.3634,-946 997.3634,-958 997.3634,-958 997.3634,-964 991.3634,-970 985.3634,-970"/>
<text text-anchor="middle" x="929.249" y="-947.8" font-family="Times,serif" font-size="14.00" fill="#000000">187: scaleOnCenter()</text>
</g>
<!-- node_0f7056d5&#45;&gt;node_752ea27d -->
<g id="edge3" class="edge">
<title>node_0f7056d5-&gt;node_752ea27d</title>
<path fill="none" stroke="#0072b2" stroke-width="2" d="M769.0131,-948C769.0131,-948 850.8362,-948 850.8362,-948"/>
<polygon fill="#0072b2" stroke="#0072b2" stroke-width="2" points="850.8363,-951.5001 860.8362,-948 850.8362,-944.5001 850.8363,-951.5001"/>
</g>
<!-- node_4091edf1 -->
<g id="node4" class="node">
<title>node_4091edf1</title>
<path fill="#cccccc" stroke="#000000" d="M740.7953,-908C740.7953,-908 628.0265,-908 628.0265,-908 622.0265,-908 616.0265,-902 616.0265,-896 616.0265,-896 616.0265,-884 616.0265,-884 616.0265,-878 622.0265,-872 628.0265,-872 628.0265,-872 740.7953,-872 740.7953,-872 746.7953,-872 752.7953,-878 752.7953,-884 752.7953,-884 752.7953,-896 752.7953,-896 752.7953,-902 746.7953,-908 740.7953,-908"/>
<text text-anchor="middle" x="684.4109" y="-885.8" font-family="Times,serif" font-size="14.00" fill="#000000">84: drawBaseImage()</text>
</g>
<!-- node_4091edf1&#45;&gt;node_4d053972 -->
<g id="edge4" class="edge">
<title>node_4091edf1-&gt;node_4d053972</title>
<path fill="none" stroke="#e69f00" stroke-width="2" d="M752.9375,-894C752.9375,-894 840.3604,-894 840.3604,-894"/>
<polygon fill="#e69f00" stroke="#e69f00" stroke-width="2" points="840.3605,-897.5001 850.3604,-894 840.3604,-890.5001 840.3605,-897.5001"/>
</g>
<!-- node_12d833ea -->
<g id="node22" class="node">
<title>node_12d833ea</title>
<path fill="#6db33f" stroke="#000000" d="M1000.7132,-862C1000.7132,-862 857.7848,-862 857.7848,-862 851.7848,-862 845.7848,-856 845.7848,-850 845.7848,-850 845.7848,-838 845.7848,-838 845.7848,-832 851.7848,-826 857.7848,-826 857.7848,-826 1000.7132,-826 1000.7132,-826 1006.7132,-826 1012.7132,-832 1012.7132,-838 1012.7132,-838 1012.7132,-850 1012.7132,-850 1012.7132,-856 1006.7132,-862 1000.7132,-862"/>
<text text-anchor="middle" x="929.249" y="-839.8" font-family="Times,serif" font-size="14.00" fill="#000000">175: fitImageProportions()</text>
</g>
<!-- node_4091edf1&#45;&gt;node_12d833ea -->
<g id="edge5" class="edge">
<title>node_4091edf1-&gt;node_12d833ea</title>
<path fill="none" stroke="#e69f00" stroke-width="2" d="M685.293,-871.7566C685.293,-864.5703 685.293,-858 685.293,-858 685.293,-858 835.9755,-858 835.9755,-858"/>
<polygon fill="#e69f00" stroke="#e69f00" stroke-width="2" points="835.9755,-861.5001 845.9755,-858 835.9755,-854.5001 835.9755,-861.5001"/>
</g>
<!-- node_64de78b1 -->
<g id="node5" class="node">
<title>node_64de78b1</title>
<path fill="#cccccc" stroke="#000000" d="M765.2939,-854C765.2939,-854 603.5279,-854 603.5279,-854 597.5279,-854 591.5279,-848 591.5279,-842 591.5279,-842 591.5279,-830 591.5279,-830 591.5279,-824 597.5279,-818 603.5279,-818 603.5279,-818 765.2939,-818 765.2939,-818 771.2939,-818 777.2939,-824 777.2939,-830 777.2939,-830 777.2939,-842 777.2939,-842 777.2939,-848 771.2939,-854 765.2939,-854"/>
<text text-anchor="middle" x="684.4109" y="-831.8" font-family="Times,serif" font-size="14.00" fill="#000000">402: drawGroundtruthImage()</text>
</g>
<!-- node_64de78b1&#45;&gt;node_12d833ea -->
<g id="edge6" class="edge">
<title>node_64de78b1-&gt;node_12d833ea</title>
<path fill="none" stroke="#e69f00" stroke-width="2" d="M777.3228,-840C777.3228,-840 835.6437,-840 835.6437,-840"/>
<polygon fill="#e69f00" stroke="#e69f00" stroke-width="2" points="835.6437,-843.5001 845.6437,-840 835.6436,-836.5001 835.6437,-843.5001"/>
</g>
<!-- node_6cfc7061 -->
<g id="node6" class="node">
<title>node_6cfc7061</title>
<path fill="#cccccc" stroke="#000000" d="M749.4201,-1070C749.4201,-1070 619.4017,-1070 619.4017,-1070 613.4017,-1070 607.4017,-1064 607.4017,-1058 607.4017,-1058 607.4017,-1046 607.4017,-1046 607.4017,-1040 613.4017,-1034 619.4017,-1034 619.4017,-1034 749.4201,-1034 749.4201,-1034 755.4201,-1034 761.4201,-1040 761.4201,-1046 761.4201,-1046 761.4201,-1058 761.4201,-1058 761.4201,-1064 755.4201,-1070 749.4201,-1070"/>
<text text-anchor="middle" x="684.4109" y="-1047.8" font-family="Times,serif" font-size="14.00" fill="#000000">256: drawProbeLayout()</text>
</g>
<!-- node_648ac16b -->
<g id="node21" class="node">
<title>node_648ac16b</title>
<path fill="#6db33f" stroke="#000000" d="M1414.909,-1078C1414.909,-1078 1331.205,-1078 1331.205,-1078 1325.205,-1078 1319.205,-1072 1319.205,-1066 1319.205,-1066 1319.205,-1054 1319.205,-1054 1319.205,-1048 1325.205,-1042 1331.205,-1042 1331.205,-1042 1414.909,-1042 1414.909,-1042 1420.909,-1042 1426.909,-1048 1426.909,-1054 1426.909,-1054 1426.909,-1066 1426.909,-1066 1426.909,-1072 1420.909,-1078 1414.909,-1078"/>
<text text-anchor="middle" x="1373.057" y="-1055.8" font-family="Times,serif" font-size="14.00" fill="#000000">278: drawGrid()</text>
</g>
<!-- node_6cfc7061&#45;&gt;node_648ac16b -->
<g id="edge7" class="edge">
<title>node_6cfc7061-&gt;node_648ac16b</title>
<path fill="none" stroke="#e69f00" stroke-width="2" d="M758.293,-1070.0328C758.293,-1076.8526 758.293,-1083 758.293,-1083 758.293,-1083 1373.293,-1083 1373.293,-1083 1373.293,-1083 1373.293,-1082.5122 1373.293,-1082.5122"/>
<polygon fill="#e69f00" stroke="#e69f00" stroke-width="2" points="1376.7932,-1088.1222 1373.293,-1078.1223 1369.7932,-1088.1224 1376.7932,-1088.1222"/>
</g>
<!-- node_f8013a04 -->
<g id="node25" class="node">
<title>node_f8013a04</title>
<path fill="#cccccc" stroke="#000000" d="M976.789,-754C976.789,-754 881.709,-754 881.709,-754 875.709,-754 869.709,-748 869.709,-742 869.709,-742 869.709,-730 869.709,-730 869.709,-724 875.709,-718 881.709,-718 881.709,-718 976.789,-718 976.789,-718 982.789,-718 988.789,-724 988.789,-730 988.789,-730 988.789,-742 988.789,-742 988.789,-748 982.789,-754 976.789,-754"/>
<text text-anchor="middle" x="929.249" y="-731.8" font-family="Times,serif" font-size="14.00" fill="#000000">39: getColsInput()</text>
</g>
<!-- node_6cfc7061&#45;&gt;node_f8013a04 -->
<g id="edge8" class="edge">
<title>node_6cfc7061-&gt;node_f8013a04</title>
<path fill="none" stroke="#e69f00" stroke-width="2" d="M761.6237,-1038C787.6808,-1038 810.293,-1038 810.293,-1038 810.293,-1038 810.293,-736.6667 810.293,-736.6667 810.293,-736.6667 859.4225,-736.6667 859.4225,-736.6667"/>
<polygon fill="#e69f00" stroke="#e69f00" stroke-width="2" points="859.4225,-740.1668 869.4225,-736.6667 859.4225,-733.1668 859.4225,-740.1668"/>
</g>
<!-- node_4123d51e -->
<g id="node29" class="node">
<title>node_4123d51e</title>
<path fill="#cccccc" stroke="#000000" d="M980.0053,-700C980.0053,-700 878.4927,-700 878.4927,-700 872.4927,-700 866.4927,-694 866.4927,-688 866.4927,-688 866.4927,-676 866.4927,-676 866.4927,-670 872.4927,-664 878.4927,-664 878.4927,-664 980.0053,-664 980.0053,-664 986.0053,-664 992.0053,-670 992.0053,-676 992.0053,-676 992.0053,-688 992.0053,-688 992.0053,-694 986.0053,-700 980.0053,-700"/>
<text text-anchor="middle" x="929.249" y="-677.8" font-family="Times,serif" font-size="14.00" fill="#000000">38: getRowsInput()</text>
</g>
<!-- node_6cfc7061&#45;&gt;node_4123d51e -->
<g id="edge9" class="edge">
<title>node_6cfc7061-&gt;node_4123d51e</title>
<path fill="none" stroke="#e69f00" stroke-width="2" d="M761.7138,-1036C784.4202,-1036 803.293,-1036 803.293,-1036 803.293,-1036 803.293,-692.8 803.293,-692.8 803.293,-692.8 856.271,-692.8 856.271,-692.8"/>
<polygon fill="#e69f00" stroke="#e69f00" stroke-width="2" points="856.271,-696.3001 866.271,-692.8 856.271,-689.3001 856.271,-696.3001"/>
</g>
<!-- node_bfd3c473 -->
<g id="node37" class="node">
<title>node_bfd3c473</title>
<path fill="#6db33f" stroke="#000000" d="M1234.2943,-848C1234.2943,-848 1096.7747,-848 1096.7747,-848 1090.7747,-848 1084.7747,-842 1084.7747,-836 1084.7747,-836 1084.7747,-824 1084.7747,-824 1084.7747,-818 1090.7747,-812 1096.7747,-812 1096.7747,-812 1234.2943,-812 1234.2943,-812 1240.2943,-812 1246.2943,-818 1246.2943,-824 1246.2943,-824 1246.2943,-836 1246.2943,-836 1246.2943,-842 1240.2943,-848 1234.2943,-848"/>
<text text-anchor="middle" x="1165.5345" y="-825.8" font-family="Times,serif" font-size="14.00" fill="#000000">328: repeatDrawOnGrid()</text>
</g>
<!-- node_6cfc7061&#45;&gt;node_bfd3c473 -->
<g id="edge10" class="edge">
<title>node_6cfc7061-&gt;node_bfd3c473</title>
<path fill="none" stroke="#e69f00" stroke-width="2" d="M761.6985,-1040C861.1576,-1040 1021.293,-1040 1021.293,-1040 1021.293,-1040 1021.293,-837 1021.293,-837 1021.293,-837 1074.5594,-837 1074.5594,-837"/>
<polygon fill="#e69f00" stroke="#e69f00" stroke-width="2" points="1074.5595,-840.5001 1084.5594,-837 1074.5594,-833.5001 1074.5595,-840.5001"/>
</g>
<!-- node_b72b4386 -->
<g id="node7" class="node">
<title>node_b72b4386</title>
<path fill="#cccccc" stroke="#000000" d="M776.0893,-800C776.0893,-800 592.7325,-800 592.7325,-800 586.7325,-800 580.7325,-794 580.7325,-788 580.7325,-788 580.7325,-776 580.7325,-776 580.7325,-770 586.7325,-764 592.7325,-764 592.7325,-764 776.0893,-764 776.0893,-764 782.0893,-764 788.0893,-770 788.0893,-776 788.0893,-776 788.0893,-788 788.0893,-788 788.0893,-794 782.0893,-800 776.0893,-800"/>
<text text-anchor="middle" x="684.4109" y="-777.8" font-family="Times,serif" font-size="14.00" fill="#000000">336: drawProbeLayoutSampling()</text>
</g>
<!-- node_1448ada9 -->
<g id="node19" class="node">
<title>node_1448ada9</title>
<path fill="#cccccc" stroke="#000000" d="M1022.247,-808C1022.247,-808 836.251,-808 836.251,-808 830.251,-808 824.251,-802 824.251,-796 824.251,-796 824.251,-784 824.251,-784 824.251,-778 830.251,-772 836.251,-772 836.251,-772 1022.247,-772 1022.247,-772 1028.247,-772 1034.247,-778 1034.247,-784 1034.247,-784 1034.247,-796 1034.247,-796 1034.247,-802 1028.247,-808 1022.247,-808"/>
<text text-anchor="middle" x="929.249" y="-785.8" font-family="Times,serif" font-size="14.00" fill="#000000">355: computeResampledPreview()</text>
</g>
<!-- node_b72b4386&#45;&gt;node_1448ada9 -->
<g id="edge11" class="edge">
<title>node_b72b4386-&gt;node_1448ada9</title>
<path fill="none" stroke="#d55e00" stroke-width="2" d="M788.2443,-786C788.2443,-786 814.0808,-786 814.0808,-786"/>
<polygon fill="#d55e00" stroke="#d55e00" stroke-width="2" points="814.0808,-789.5001 824.0808,-786 814.0808,-782.5001 814.0808,-789.5001"/>
</g>
<!-- node_b72b4386&#45;&gt;node_f8013a04 -->
<g id="edge12" class="edge">
<title>node_b72b4386-&gt;node_f8013a04</title>
<path fill="none" stroke="#d55e00" stroke-width="2" d="M778.293,-763.7566C778.293,-756.5703 778.293,-750 778.293,-750 778.293,-750 859.5872,-750 859.5872,-750"/>
<polygon fill="#d55e00" stroke="#d55e00" stroke-width="2" points="859.5872,-753.5001 869.5872,-750 859.5872,-746.5001 859.5872,-753.5001"/>
</g>
<!-- node_b72b4386&#45;&gt;node_4123d51e -->
<g id="edge13" class="edge">
<title>node_b72b4386-&gt;node_4123d51e</title>
<path fill="none" stroke="#d55e00" stroke-width="2" d="M767.293,-763.9543C767.293,-734.2722 767.293,-678.4 767.293,-678.4 767.293,-678.4 856.1688,-678.4 856.1688,-678.4"/>
<polygon fill="#d55e00" stroke="#d55e00" stroke-width="2" points="856.1689,-681.9001 866.1688,-678.4 856.1688,-674.9001 856.1689,-681.9001"/>
</g>
<!-- node_3c6458a3 -->
<g id="node8" class="node">
<title>node_3c6458a3</title>
<path fill="#cccccc" stroke="#000000" d="M744.3107,-746C744.3107,-746 624.5111,-746 624.5111,-746 618.5111,-746 612.5111,-740 612.5111,-734 612.5111,-734 612.5111,-722 612.5111,-722 612.5111,-716 618.5111,-710 624.5111,-710 624.5111,-710 744.3107,-710 744.3107,-710 750.3107,-710 756.3107,-716 756.3107,-722 756.3107,-722 756.3107,-734 756.3107,-734 756.3107,-740 750.3107,-746 744.3107,-746"/>
<text text-anchor="middle" x="684.4109" y="-723.8" font-family="Times,serif" font-size="14.00" fill="#000000">367: drawResampled()</text>
</g>
<!-- node_e4c483db -->
<g id="node20" class="node">
<title>node_e4c483db</title>
<path fill="#cccccc" stroke="#000000" d="M1013.6572,-646C1013.6572,-646 844.8408,-646 844.8408,-646 838.8408,-646 832.8408,-640 832.8408,-634 832.8408,-634 832.8408,-622 832.8408,-622 832.8408,-616 838.8408,-610 844.8408,-610 844.8408,-610 1013.6572,-610 1013.6572,-610 1019.6572,-610 1025.6572,-616 1025.6572,-622 1025.6572,-622 1025.6572,-634 1025.6572,-634 1025.6572,-640 1019.6572,-646 1013.6572,-646"/>
<text text-anchor="middle" x="929.249" y="-623.8" font-family="Times,serif" font-size="14.00" fill="#000000">442: computeResampledSlow()</text>
</g>
<!-- node_3c6458a3&#45;&gt;node_e4c483db -->
<g id="edge14" class="edge">
<title>node_3c6458a3-&gt;node_e4c483db</title>
<path fill="none" stroke="#009e73" stroke-width="2" d="M756.6867,-712.6667C801.3885,-712.6667 850.293,-712.6667 850.293,-712.6667 850.293,-712.6667 850.293,-656.3714 850.293,-656.3714"/>
<polygon fill="#009e73" stroke="#009e73" stroke-width="2" points="853.7931,-656.3714 850.293,-646.3714 846.7931,-656.3714 853.7931,-656.3714"/>
</g>
<!-- node_3c6458a3&#45;&gt;node_f8013a04 -->
<g id="edge15" class="edge">
<title>node_3c6458a3-&gt;node_f8013a04</title>
<path fill="none" stroke="#009e73" stroke-width="2" d="M756.5462,-727.3333C756.5462,-727.3333 859.5799,-727.3333 859.5799,-727.3333"/>
<polygon fill="#009e73" stroke="#009e73" stroke-width="2" points="859.58,-730.8334 869.5799,-727.3333 859.5799,-723.8334 859.58,-730.8334"/>
</g>
<!-- node_3c6458a3&#45;&gt;node_4123d51e -->
<g id="edge16" class="edge">
<title>node_3c6458a3-&gt;node_4123d51e</title>
<path fill="none" stroke="#009e73" stroke-width="2" d="M756.5591,-715.3333C828.7933,-715.3333 929.293,-715.3333 929.293,-715.3333 929.293,-715.3333 929.293,-710.2271 929.293,-710.2271"/>
<polygon fill="#009e73" stroke="#009e73" stroke-width="2" points="932.7931,-710.2271 929.293,-700.2271 925.7931,-710.2272 932.7931,-710.2271"/>
</g>
<!-- node_72880f5e -->
<g id="node9" class="node">
<title>node_72880f5e</title>
<path fill="#cccccc" stroke="#000000" d="M747.538,-1016C747.538,-1016 621.2838,-1016 621.2838,-1016 615.2838,-1016 609.2838,-1010 609.2838,-1004 609.2838,-1004 609.2838,-992 609.2838,-992 609.2838,-986 615.2838,-980 621.2838,-980 621.2838,-980 747.538,-980 747.538,-980 753.538,-980 759.538,-986 759.538,-992 759.538,-992 759.538,-1004 759.538,-1004 759.538,-1010 753.538,-1016 747.538,-1016"/>
<text text-anchor="middle" x="684.4109" y="-993.8" font-family="Times,serif" font-size="14.00" fill="#000000">457: drawVirtualSEM()</text>
</g>
<!-- node_54aa6549 -->
<g id="node14" class="node">
<title>node_54aa6549</title>
<path fill="#cccccc" stroke="#000000" d="M1248.608,-160C1248.608,-160 1082.461,-160 1082.461,-160 1076.461,-160 1070.461,-154 1070.461,-148 1070.461,-148 1070.461,-136 1070.461,-136 1070.461,-130 1076.461,-124 1082.461,-124 1082.461,-124 1248.608,-124 1248.608,-124 1254.608,-124 1260.608,-130 1260.608,-136 1260.608,-136 1260.608,-148 1260.608,-148 1260.608,-154 1254.608,-160 1248.608,-160"/>
<text text-anchor="middle" x="1165.5345" y="-137.8" font-family="Times,serif" font-size="14.00" fill="#000000">539: ComputeProbeValue_gs()</text>
</g>
<!-- node_72880f5e&#45;&gt;node_54aa6549 -->
<g id="edge17" class="edge">
<title>node_72880f5e-&gt;node_54aa6549</title>
<path fill="none" stroke="#d55e00" stroke-width="2" d="M759.9176,-986C870.7027,-986 1064.293,-986 1064.293,-986 1064.293,-986 1064.293,-136 1064.293,-136 1064.293,-136 1064.896,-136 1064.896,-136"/>
<polygon fill="#d55e00" stroke="#d55e00" stroke-width="2" points="1060.323,-139.5002 1070.3229,-136 1060.3229,-132.5002 1060.323,-139.5002"/>
</g>
<!-- node_72880f5e&#45;&gt;node_f8013a04 -->
<g id="edge18" class="edge">
<title>node_72880f5e-&gt;node_f8013a04</title>
<path fill="none" stroke="#d55e00" stroke-width="2" d="M759.7818,-984C789.7736,-984 817.293,-984 817.293,-984 817.293,-984 817.293,-752 817.293,-752 817.293,-752 859.6653,-752 859.6653,-752"/>
<polygon fill="#d55e00" stroke="#d55e00" stroke-width="2" points="859.6653,-755.5001 869.6653,-752 859.6652,-748.5001 859.6653,-755.5001"/>
</g>
<!-- node_b3a4a165 -->
<g id="node28" class="node">
<title>node_b3a4a165</title>
<path fill="#6db33f" stroke="#000000" d="M980.5591,-1024C980.5591,-1024 877.9389,-1024 877.9389,-1024 871.9389,-1024 865.9389,-1018 865.9389,-1012 865.9389,-1012 865.9389,-1000 865.9389,-1000 865.9389,-994 871.9389,-988 877.9389,-988 877.9389,-988 980.5591,-988 980.5591,-988 986.5591,-988 992.5591,-994 992.5591,-1000 992.5591,-1000 992.5591,-1012 992.5591,-1012 992.5591,-1018 986.5591,-1024 980.5591,-1024"/>
<text text-anchor="middle" x="929.249" y="-1001.8" font-family="Times,serif" font-size="14.00" fill="#000000">91: getRandomInt()</text>
</g>
<!-- node_72880f5e&#45;&gt;node_b3a4a165 -->
<g id="edge19" class="edge">
<title>node_72880f5e-&gt;node_b3a4a165</title>
<path fill="none" stroke="#d55e00" stroke-width="2" d="M759.5343,-997.3333C759.5343,-997.3333 855.8177,-997.3333 855.8177,-997.3333"/>
<polygon fill="#d55e00" stroke="#d55e00" stroke-width="2" points="855.8177,-1000.8334 865.8177,-997.3333 855.8177,-993.8334 855.8177,-1000.8334"/>
</g>
<!-- node_72880f5e&#45;&gt;node_4123d51e -->
<g id="edge20" class="edge">
<title>node_72880f5e-&gt;node_4123d51e</title>
<path fill="none" stroke="#d55e00" stroke-width="2" d="M759.6586,-982C779.8972,-982 796.293,-982 796.293,-982 796.293,-982 796.293,-685.6 796.293,-685.6 796.293,-685.6 856.2752,-685.6 856.2752,-685.6"/>
<polygon fill="#d55e00" stroke="#d55e00" stroke-width="2" points="856.2753,-689.1001 866.2752,-685.6 856.2752,-682.1001 856.2753,-689.1001"/>
</g>
<!-- node_3055b3ff -->
<g id="node30" class="node">
<title>node_3055b3ff</title>
<path fill="#cccccc" stroke="#000000" d="M1001.8044,-1078C1001.8044,-1078 856.6936,-1078 856.6936,-1078 850.6936,-1078 844.6936,-1072 844.6936,-1066 844.6936,-1066 844.6936,-1054 844.6936,-1054 844.6936,-1048 850.6936,-1042 856.6936,-1042 856.6936,-1042 1001.8044,-1042 1001.8044,-1042 1007.8044,-1042 1013.8044,-1048 1013.8044,-1054 1013.8044,-1054 1013.8044,-1066 1013.8044,-1066 1013.8044,-1072 1007.8044,-1078 1001.8044,-1078"/>
<text text-anchor="middle" x="929.249" y="-1055.8" font-family="Times,serif" font-size="14.00" fill="#000000">45: getSEMRefreshDelay()</text>
</g>
<!-- node_72880f5e&#45;&gt;node_3055b3ff -->
<g id="edge21" class="edge">
<title>node_72880f5e-&gt;node_3055b3ff</title>
<path fill="none" stroke="#d55e00" stroke-width="2" d="M759.913,-1006.6667C805.2843,-1006.6667 854.293,-1006.6667 854.293,-1006.6667 854.293,-1006.6667 854.293,-1031.9438 854.293,-1031.9438"/>
<polygon fill="#d55e00" stroke="#d55e00" stroke-width="2" points="850.7931,-1031.9437 854.293,-1041.9438 857.7931,-1031.9438 850.7931,-1031.9437"/>
</g>
<!-- node_6d0faa0f -->
<g id="node40" class="node">
<title>node_6d0faa0f</title>
<path fill="#6db33f" stroke="#000000" d="M1415.7608,-160C1415.7608,-160 1330.3532,-160 1330.3532,-160 1324.3532,-160 1318.3532,-154 1318.3532,-148 1318.3532,-148 1318.3532,-136 1318.3532,-136 1318.3532,-130 1324.3532,-124 1330.3532,-124 1330.3532,-124 1415.7608,-124 1415.7608,-124 1421.7608,-124 1427.7608,-130 1427.7608,-136 1427.7608,-136 1427.7608,-148 1427.7608,-148 1427.7608,-154 1421.7608,-160 1415.7608,-160"/>
<text text-anchor="middle" x="1373.057" y="-137.8" font-family="Times,serif" font-size="14.00" fill="#000000">535: toRadians()</text>
</g>
<!-- node_72880f5e&#45;&gt;node_6d0faa0f -->
<g id="edge22" class="edge">
<title>node_72880f5e-&gt;node_6d0faa0f</title>
<path fill="none" stroke="#d55e00" stroke-width="2" d="M685.293,-979.8777C685.293,-977.0271 685.293,-975 685.293,-975 685.293,-975 1392.293,-975 1392.293,-975 1392.293,-975 1392.293,-170.1731 1392.293,-170.1731"/>
<polygon fill="#d55e00" stroke="#d55e00" stroke-width="2" points="1395.7931,-170.173 1392.293,-160.1731 1388.7931,-170.1731 1395.7931,-170.173"/>
</g>
<!-- node_215b97c9 -->
<g id="node10" class="node">
<title>node_215b97c9</title>
<path fill="#966f33" stroke="#000000" d="M129.2599,-854C129.2599,-854 69.2023,-854 69.2023,-854 63.2023,-854 57.2023,-848 57.2023,-842 57.2023,-842 57.2023,-830 57.2023,-830 57.2023,-824 63.2023,-818 69.2023,-818 69.2023,-818 129.2599,-818 129.2599,-818 135.2599,-818 141.2599,-824 141.2599,-830 141.2599,-830 141.2599,-842 141.2599,-842 141.2599,-848 135.2599,-854 129.2599,-854"/>
<text text-anchor="middle" x="99.2311" y="-831.8" font-family="Times,serif" font-size="14.00" fill="#000000">0: (global)()</text>
</g>
<!-- node_215b97c9&#45;&gt;node_f7d1a6de -->
<g id="edge23" class="edge">
<title>node_215b97c9-&gt;node_f7d1a6de</title>
<path fill="none" stroke="#e69f00" stroke-width="2" d="M99.293,-854.348C99.293,-922.8881 99.293,-1160 99.293,-1160 99.293,-1160 610.6792,-1160 610.6792,-1160"/>
<polygon fill="#e69f00" stroke="#e69f00" stroke-width="2" points="610.6792,-1163.5001 620.6792,-1160 610.6791,-1156.5001 610.6792,-1163.5001"/>
</g>
<!-- node_d6136d04 -->
<g id="node13" class="node">
<title>node_d6136d04</title>
<path fill="#cccccc" stroke="#000000" d="M355.9561,-854C355.9561,-854 230.2973,-854 230.2973,-854 224.2973,-854 218.2973,-848 218.2973,-842 218.2973,-842 218.2973,-830 218.2973,-830 218.2973,-824 224.2973,-818 230.2973,-818 230.2973,-818 355.9561,-818 355.9561,-818 361.9561,-818 367.9561,-824 367.9561,-830 367.9561,-830 367.9561,-842 367.9561,-842 367.9561,-848 361.9561,-854 355.9561,-854"/>
<text text-anchor="middle" x="293.1267" y="-831.8" font-family="Times,serif" font-size="14.00" fill="#000000">65: UpdateBaseImage()</text>
</g>
<!-- node_215b97c9&#45;&gt;node_d6136d04 -->
<g id="edge24" class="edge">
<title>node_215b97c9-&gt;node_d6136d04</title>
<path fill="none" stroke="#e69f00" stroke-width="2" d="M141.3036,-845C141.3036,-845 208.296,-845 208.296,-845"/>
<polygon fill="#e69f00" stroke="#e69f00" stroke-width="2" points="208.296,-848.5001 218.296,-845 208.2959,-841.5001 208.296,-848.5001"/>
</g>
<!-- node_8fdf7f1b -->
<g id="node26" class="node">
<title>node_8fdf7f1b</title>
<path fill="#6db33f" stroke="#000000" d="M1001.2554,-322C1001.2554,-322 857.2426,-322 857.2426,-322 851.2426,-322 845.2426,-316 845.2426,-310 845.2426,-310 845.2426,-298 845.2426,-298 845.2426,-292 851.2426,-286 857.2426,-286 857.2426,-286 1001.2554,-286 1001.2554,-286 1007.2554,-286 1013.2554,-292 1013.2554,-298 1013.2554,-298 1013.2554,-310 1013.2554,-310 1013.2554,-316 1007.2554,-322 1001.2554,-322"/>
<text text-anchor="middle" x="929.249" y="-299.8" font-family="Times,serif" font-size="14.00" fill="#000000">46: getGroundtruthImage()</text>
</g>
<!-- node_215b97c9&#45;&gt;node_8fdf7f1b -->
<g id="edge25" class="edge">
<title>node_215b97c9-&gt;node_8fdf7f1b</title>
<path fill="none" stroke="#e69f00" stroke-width="2" d="M141.3652,-827C167.1759,-827 195.293,-827 195.293,-827 195.293,-827 195.293,-304 195.293,-304 195.293,-304 835.0549,-304 835.0549,-304"/>
<polygon fill="#e69f00" stroke="#e69f00" stroke-width="2" points="835.0549,-307.5001 845.0549,-304 835.0549,-300.5001 835.0549,-307.5001"/>
</g>
<!-- node_5f62fe42 -->
<g id="node36" class="node">
<title>node_5f62fe42</title>
<path fill="#6db33f" stroke="#000000" d="M990.7526,-376C990.7526,-376 867.7454,-376 867.7454,-376 861.7454,-376 855.7454,-370 855.7454,-364 855.7454,-364 855.7454,-352 855.7454,-352 855.7454,-346 861.7454,-340 867.7454,-340 867.7454,-340 990.7526,-340 990.7526,-340 996.7526,-340 1002.7526,-346 1002.7526,-352 1002.7526,-352 1002.7526,-364 1002.7526,-364 1002.7526,-370 996.7526,-376 990.7526,-376"/>
<text text-anchor="middle" x="929.249" y="-353.8" font-family="Times,serif" font-size="14.00" fill="#000000">2: newStageTemplate()</text>
</g>
<!-- node_215b97c9&#45;&gt;node_5f62fe42 -->
<g id="edge26" class="edge">
<title>node_215b97c9-&gt;node_5f62fe42</title>
<path fill="none" stroke="#e69f00" stroke-width="2" d="M141.3201,-836C171.6621,-836 207.293,-836 207.293,-836 207.293,-836 207.293,-358 207.293,-358 207.293,-358 845.7157,-358 845.7157,-358"/>
<polygon fill="#e69f00" stroke="#e69f00" stroke-width="2" points="845.7158,-361.5001 855.7157,-358 845.7157,-354.5001 845.7158,-361.5001"/>
</g>
<!-- node_06ba7345 -->
<g id="node11" class="node">
<title>node_06ba7345</title>
<path fill="#cccccc" stroke="#000000" d="M532.4623,-854C532.4623,-854 415.9007,-854 415.9007,-854 409.9007,-854 403.9007,-848 403.9007,-842 403.9007,-842 403.9007,-830 403.9007,-830 403.9007,-824 409.9007,-818 415.9007,-818 415.9007,-818 532.4623,-818 532.4623,-818 538.4623,-818 544.4623,-824 544.4623,-830 544.4623,-830 544.4623,-842 544.4623,-842 544.4623,-848 538.4623,-854 532.4623,-854"/>
<text text-anchor="middle" x="474.1815" y="-831.8" font-family="Times,serif" font-size="14.00" fill="#000000">75: OnImageLoaded()</text>
</g>
<!-- node_06ba7345&#45;&gt;node_42afbacf -->
<g id="edge27" class="edge">
<title>node_06ba7345-&gt;node_42afbacf</title>
<path fill="none" stroke="#0072b2" stroke-width="2" d="M427.293,-854.1347C427.293,-914.6721 427.293,-1106 427.293,-1106 427.293,-1106 604.1523,-1106 604.1523,-1106"/>
<polygon fill="#0072b2" stroke="#0072b2" stroke-width="2" points="604.1523,-1109.5001 614.1523,-1106 604.1523,-1102.5001 604.1523,-1109.5001"/>
</g>
<!-- node_06ba7345&#45;&gt;node_0f7056d5 -->
<g id="edge28" class="edge">
<title>node_06ba7345-&gt;node_0f7056d5</title>
<path fill="none" stroke="#0072b2" stroke-width="2" d="M498.293,-854.3207C498.293,-885.1336 498.293,-944 498.293,-944 498.293,-944 589.7933,-944 589.7933,-944"/>
<polygon fill="#0072b2" stroke="#0072b2" stroke-width="2" points="589.7933,-947.5001 599.7933,-944 589.7932,-940.5001 589.7933,-947.5001"/>
</g>
<!-- node_06ba7345&#45;&gt;node_4091edf1 -->
<g id="edge29" class="edge">
<title>node_06ba7345-&gt;node_4091edf1</title>
<path fill="none" stroke="#0072b2" stroke-width="2" d="M521.293,-854.2819C521.293,-869.9478 521.293,-890 521.293,-890 521.293,-890 605.707,-890 605.707,-890"/>
<polygon fill="#0072b2" stroke="#0072b2" stroke-width="2" points="605.707,-893.5001 615.707,-890 605.707,-886.5001 605.707,-893.5001"/>
</g>
<!-- node_06ba7345&#45;&gt;node_64de78b1 -->
<g id="edge30" class="edge">
<title>node_06ba7345-&gt;node_64de78b1</title>
<path fill="none" stroke="#0072b2" stroke-width="2" d="M544.4771,-842C544.4771,-842 581.3752,-842 581.3752,-842"/>
<polygon fill="#0072b2" stroke="#0072b2" stroke-width="2" points="581.3753,-845.5001 591.3752,-842 581.3752,-838.5001 581.3753,-845.5001"/>
</g>
<!-- node_06ba7345&#45;&gt;node_6cfc7061 -->
<g id="edge31" class="edge">
<title>node_06ba7345-&gt;node_6cfc7061</title>
<path fill="none" stroke="#0072b2" stroke-width="2" d="M451.293,-854.0445C451.293,-905.9579 451.293,-1052 451.293,-1052 451.293,-1052 597.1098,-1052 597.1098,-1052"/>
<polygon fill="#0072b2" stroke="#0072b2" stroke-width="2" points="597.1099,-1055.5001 607.1098,-1052 597.1098,-1048.5001 597.1099,-1055.5001"/>
</g>
<!-- node_06ba7345&#45;&gt;node_b72b4386 -->
<g id="edge32" class="edge">
<title>node_06ba7345-&gt;node_b72b4386</title>
<path fill="none" stroke="#0072b2" stroke-width="2" d="M544.5468,-830C567.0717,-830 586.293,-830 586.293,-830 586.293,-830 586.293,-810.1467 586.293,-810.1467"/>
<polygon fill="#0072b2" stroke="#0072b2" stroke-width="2" points="589.7931,-810.1467 586.293,-800.1467 582.7931,-810.1468 589.7931,-810.1467"/>
</g>
<!-- node_06ba7345&#45;&gt;node_3c6458a3 -->
<g id="edge33" class="edge">
<title>node_06ba7345-&gt;node_3c6458a3</title>
<path fill="none" stroke="#0072b2" stroke-width="2" d="M505.293,-817.6793C505.293,-786.8664 505.293,-728 505.293,-728 505.293,-728 602.331,-728 602.331,-728"/>
<polygon fill="#0072b2" stroke="#0072b2" stroke-width="2" points="602.3311,-731.5001 612.331,-728 602.331,-724.5001 602.3311,-731.5001"/>
</g>
<!-- node_06ba7345&#45;&gt;node_72880f5e -->
<g id="edge34" class="edge">
<title>node_06ba7345-&gt;node_72880f5e</title>
<path fill="none" stroke="#0072b2" stroke-width="2" d="M474.293,-854.2686C474.293,-896.6357 474.293,-998 474.293,-998 474.293,-998 599.147,-998 599.147,-998"/>
<polygon fill="#0072b2" stroke="#0072b2" stroke-width="2" points="599.147,-1001.5001 609.147,-998 599.147,-994.5001 599.147,-1001.5001"/>
</g>
<!-- node_80c9db08 -->
<g id="node16" class="node">
<title>node_80c9db08</title>
<path fill="#6db33f" stroke="#000000" d="M992.1064,-484C992.1064,-484 866.3916,-484 866.3916,-484 860.3916,-484 854.3916,-478 854.3916,-472 854.3916,-472 854.3916,-460 854.3916,-460 854.3916,-454 860.3916,-448 866.3916,-448 866.3916,-448 992.1064,-448 992.1064,-448 998.1064,-448 1004.1064,-454 1004.1064,-460 1004.1064,-460 1004.1064,-472 1004.1064,-472 1004.1064,-478 998.1064,-484 992.1064,-484"/>
<text text-anchor="middle" x="929.249" y="-461.8" font-family="Times,serif" font-size="14.00" fill="#000000">140: computeCellSize()</text>
</g>
<!-- node_06ba7345&#45;&gt;node_80c9db08 -->
<g id="edge35" class="edge">
<title>node_06ba7345-&gt;node_80c9db08</title>
<path fill="none" stroke="#0072b2" stroke-width="2" d="M424.293,-817.9037C424.293,-743.6189 424.293,-466 424.293,-466 424.293,-466 844.4693,-466 844.4693,-466"/>
<polygon fill="#0072b2" stroke="#0072b2" stroke-width="2" points="844.4693,-469.5001 854.4693,-466 844.4693,-462.5001 844.4693,-469.5001"/>
</g>
<!-- node_06ba7345&#45;&gt;node_f8013a04 -->
<g id="edge36" class="edge">
<title>node_06ba7345-&gt;node_f8013a04</title>
<path fill="none" stroke="#0072b2" stroke-width="2" d="M525.293,-817.7663C525.293,-791.9906 525.293,-748 525.293,-748 525.293,-748 859.6439,-748 859.6439,-748"/>
<polygon fill="#0072b2" stroke="#0072b2" stroke-width="2" points="859.6439,-751.5001 869.6439,-748 859.6439,-744.5001 859.6439,-751.5001"/>
</g>
<!-- node_06ba7345&#45;&gt;node_4123d51e -->
<g id="edge38" class="edge">
<title>node_06ba7345-&gt;node_4123d51e</title>
<path fill="none" stroke="#0072b2" stroke-width="2" d="M484.293,-817.7338C484.293,-774.8261 484.293,-671.2 484.293,-671.2 484.293,-671.2 856.4414,-671.2 856.4414,-671.2"/>
<polygon fill="#0072b2" stroke="#0072b2" stroke-width="2" points="856.4414,-674.7001 866.4414,-671.2 856.4414,-667.7001 856.4414,-674.7001"/>
</g>
<!-- node_4bf1b69f -->
<g id="node41" class="node">
<title>node_4bf1b69f</title>
<path fill="#6db33f" stroke="#000000" d="M1021.6921,-538C1021.6921,-538 836.8059,-538 836.8059,-538 830.8059,-538 824.8059,-532 824.8059,-526 824.8059,-526 824.8059,-514 824.8059,-514 824.8059,-508 830.8059,-502 836.8059,-502 836.8059,-502 1021.6921,-502 1021.6921,-502 1027.6921,-502 1033.6921,-508 1033.6921,-514 1033.6921,-514 1033.6921,-526 1033.6921,-526 1033.6921,-532 1027.6921,-538 1021.6921,-538"/>
<text text-anchor="middle" x="929.249" y="-515.8" font-family="Times,serif" font-size="14.00" fill="#000000">107: updateDisplayBeamParams()</text>
</g>
<!-- node_06ba7345&#45;&gt;node_4bf1b69f -->
<g id="edge40" class="edge">
<title>node_06ba7345-&gt;node_4bf1b69f</title>
<path fill="none" stroke="#0072b2" stroke-width="2" d="M444.293,-817.6446C444.293,-750.2025 444.293,-520 444.293,-520 444.293,-520 814.9159,-520 814.9159,-520"/>
<polygon fill="#0072b2" stroke="#0072b2" stroke-width="2" points="814.916,-523.5001 824.9159,-520 814.9159,-516.5001 814.916,-523.5001"/>
</g>
<!-- node_d2032d16 -->
<g id="node42" class="node">
<title>node_d2032d16</title>
<path fill="#cccccc" stroke="#000000" d="M987.261,-592C987.261,-592 871.237,-592 871.237,-592 865.237,-592 859.237,-586 859.237,-580 859.237,-580 859.237,-568 859.237,-568 859.237,-562 865.237,-556 871.237,-556 871.237,-556 987.261,-556 987.261,-556 993.261,-556 999.261,-562 999.261,-568 999.261,-568 999.261,-580 999.261,-580 999.261,-586 993.261,-592 987.261,-592"/>
<text text-anchor="middle" x="929.249" y="-569.8" font-family="Times,serif" font-size="14.00" fill="#000000">156: updateMagInfo()</text>
</g>
<!-- node_06ba7345&#45;&gt;node_d2032d16 -->
<g id="edge41" class="edge">
<title>node_06ba7345-&gt;node_d2032d16</title>
<path fill="none" stroke="#0072b2" stroke-width="2" d="M464.293,-817.9917C464.293,-758.7984 464.293,-574 464.293,-574 464.293,-574 849.137,-574 849.137,-574"/>
<polygon fill="#0072b2" stroke="#0072b2" stroke-width="2" points="849.137,-577.5001 859.137,-574 849.1369,-570.5001 849.137,-577.5001"/>
</g>
<!-- node_e42ba2ff -->
<g id="node12" class="node">
<title>node_e42ba2ff</title>
<path fill="#966f33" stroke="#000000" d="M170.6939,-800C170.6939,-800 27.7683,-800 27.7683,-800 21.7683,-800 15.7683,-794 15.7683,-788 15.7683,-788 15.7683,-776 15.7683,-776 15.7683,-770 21.7683,-764 27.7683,-764 27.7683,-764 170.6939,-764 170.6939,-764 176.6939,-764 182.6939,-770 182.6939,-776 182.6939,-776 182.6939,-788 182.6939,-788 182.6939,-794 176.6939,-800 170.6939,-800"/>
<text text-anchor="middle" x="99.2311" y="-777.8" font-family="Times,serif" font-size="14.00" fill="#000000">199: ResampleFullImage()</text>
</g>
<!-- node_e42ba2ff&#45;&gt;node_54aa6549 -->
<g id="edge42" class="edge">
<title>node_e42ba2ff-&gt;node_54aa6549</title>
<path fill="none" stroke="#cc79a7" stroke-width="2" d="M162.293,-763.5588C162.293,-692.3142 162.293,-439 162.293,-439 162.293,-439 1079.293,-439 1079.293,-439 1079.293,-439 1079.293,-170.1316 1079.293,-170.1316"/>
<polygon fill="#cc79a7" stroke="#cc79a7" stroke-width="2" points="1082.7931,-170.1316 1079.293,-160.1316 1075.7931,-170.1316 1082.7931,-170.1316"/>
</g>
<!-- node_fbf6af4c -->
<g id="node23" class="node">
<title>node_fbf6af4c</title>
<path fill="#cccccc" stroke="#000000" d="M980.5563,-52C980.5563,-52 877.9417,-52 877.9417,-52 871.9417,-52 865.9417,-46 865.9417,-40 865.9417,-40 865.9417,-28 865.9417,-28 865.9417,-22 871.9417,-16 877.9417,-16 877.9417,-16 980.5563,-16 980.5563,-16 986.5563,-16 992.5563,-22 992.5563,-28 992.5563,-28 992.5563,-40 992.5563,-40 992.5563,-46 986.5563,-52 980.5563,-52"/>
<text text-anchor="middle" x="929.249" y="-29.8" font-family="Times,serif" font-size="14.00" fill="#000000">41: getCellHInput()</text>
</g>
<!-- node_e42ba2ff&#45;&gt;node_fbf6af4c -->
<g id="edge43" class="edge">
<title>node_e42ba2ff-&gt;node_fbf6af4c</title>
<path fill="none" stroke="#cc79a7" stroke-width="2" d="M37.293,-763.8806C37.293,-649.6489 37.293,-34 37.293,-34 37.293,-34 855.8168,-34 855.8168,-34"/>
<polygon fill="#cc79a7" stroke="#cc79a7" stroke-width="2" points="855.8168,-37.5001 865.8168,-34 855.8167,-30.5001 855.8168,-37.5001"/>
</g>
<!-- node_15d2065b -->
<g id="node24" class="node">
<title>node_15d2065b</title>
<path fill="#cccccc" stroke="#000000" d="M982.1642,-268C982.1642,-268 876.3338,-268 876.3338,-268 870.3338,-268 864.3338,-262 864.3338,-256 864.3338,-256 864.3338,-244 864.3338,-244 864.3338,-238 870.3338,-232 876.3338,-232 876.3338,-232 982.1642,-232 982.1642,-232 988.1642,-232 994.1642,-238 994.1642,-244 994.1642,-244 994.1642,-256 994.1642,-256 994.1642,-262 988.1642,-268 982.1642,-268"/>
<text text-anchor="middle" x="929.249" y="-245.8" font-family="Times,serif" font-size="14.00" fill="#000000">40: getCellWInput()</text>
</g>
<!-- node_e42ba2ff&#45;&gt;node_15d2065b -->
<g id="edge44" class="edge">
<title>node_e42ba2ff-&gt;node_15d2065b</title>
<path fill="none" stroke="#cc79a7" stroke-width="2" d="M120.293,-763.9946C120.293,-671.0644 120.293,-250 120.293,-250 120.293,-250 854.0755,-250 854.0755,-250"/>
<polygon fill="#cc79a7" stroke="#cc79a7" stroke-width="2" points="854.0755,-253.5001 864.0755,-250 854.0754,-246.5001 854.0755,-253.5001"/>
</g>
<!-- node_172d0c41 -->
<g id="node31" class="node">
<title>node_172d0c41</title>
<path fill="#cccccc" stroke="#000000" d="M994.0024,-214C994.0024,-214 864.4956,-214 864.4956,-214 858.4956,-214 852.4956,-208 852.4956,-202 852.4956,-202 852.4956,-190 852.4956,-190 852.4956,-184 858.4956,-178 864.4956,-178 864.4956,-178 994.0024,-178 994.0024,-178 1000.0024,-178 1006.0024,-184 1006.0024,-190 1006.0024,-190 1006.0024,-202 1006.0024,-202 1006.0024,-208 1000.0024,-214 994.0024,-214"/>
<text text-anchor="middle" x="929.249" y="-191.8" font-family="Times,serif" font-size="14.00" fill="#000000">44: getSpotAngleInput()</text>
</g>
<!-- node_e42ba2ff&#45;&gt;node_172d0c41 -->
<g id="edge45" class="edge">
<title>node_e42ba2ff-&gt;node_172d0c41</title>
<path fill="none" stroke="#cc79a7" stroke-width="2" d="M99.293,-763.8196C99.293,-664.9091 99.293,-196 99.293,-196 99.293,-196 842.2856,-196 842.2856,-196"/>
<polygon fill="#cc79a7" stroke="#cc79a7" stroke-width="2" points="842.2856,-199.5001 852.2856,-196 842.2855,-192.5001 842.2856,-199.5001"/>
</g>
<!-- node_92d5a9f6 -->
<g id="node32" class="node">
<title>node_92d5a9f6</title>
<path fill="#cccccc" stroke="#000000" d="M981.8971,-160C981.8971,-160 876.6009,-160 876.6009,-160 870.6009,-160 864.6009,-154 864.6009,-148 864.6009,-148 864.6009,-136 864.6009,-136 864.6009,-130 870.6009,-124 876.6009,-124 876.6009,-124 981.8971,-124 981.8971,-124 987.8971,-124 993.8971,-130 993.8971,-136 993.8971,-136 993.8971,-148 993.8971,-148 993.8971,-154 987.8971,-160 981.8971,-160"/>
<text text-anchor="middle" x="929.249" y="-137.8" font-family="Times,serif" font-size="14.00" fill="#000000">42: getSpotXInput()</text>
</g>
<!-- node_e42ba2ff&#45;&gt;node_92d5a9f6 -->
<g id="edge46" class="edge">
<title>node_e42ba2ff-&gt;node_92d5a9f6</title>
<path fill="none" stroke="#cc79a7" stroke-width="2" d="M79.293,-763.877C79.293,-659.7252 79.293,-142 79.293,-142 79.293,-142 854.6665,-142 854.6665,-142"/>
<polygon fill="#cc79a7" stroke="#cc79a7" stroke-width="2" points="854.6666,-145.5001 864.6665,-142 854.6665,-138.5001 854.6666,-145.5001"/>
</g>
<!-- node_de41ddd7 -->
<g id="node33" class="node">
<title>node_de41ddd7</title>
<path fill="#cccccc" stroke="#000000" d="M981.8971,-106C981.8971,-106 876.6009,-106 876.6009,-106 870.6009,-106 864.6009,-100 864.6009,-94 864.6009,-94 864.6009,-82 864.6009,-82 864.6009,-76 870.6009,-70 876.6009,-70 876.6009,-70 981.8971,-70 981.8971,-70 987.8971,-70 993.8971,-76 993.8971,-82 993.8971,-82 993.8971,-94 993.8971,-94 993.8971,-100 987.8971,-106 981.8971,-106"/>
<text text-anchor="middle" x="929.249" y="-83.8" font-family="Times,serif" font-size="14.00" fill="#000000">43: getSpotYInput()</text>
</g>
<!-- node_e42ba2ff&#45;&gt;node_de41ddd7 -->
<g id="edge47" class="edge">
<title>node_e42ba2ff-&gt;node_de41ddd7</title>
<path fill="none" stroke="#cc79a7" stroke-width="2" d="M58.293,-763.7939C58.293,-654.2954 58.293,-88 58.293,-88 58.293,-88 854.4973,-88 854.4973,-88"/>
<polygon fill="#cc79a7" stroke="#cc79a7" stroke-width="2" points="854.4973,-91.5001 864.4973,-88 854.4973,-84.5001 854.4973,-91.5001"/>
</g>
<!-- node_e42ba2ff&#45;&gt;node_6d0faa0f -->
<g id="edge48" class="edge">
<title>node_e42ba2ff-&gt;node_6d0faa0f</title>
<path fill="none" stroke="#cc79a7" stroke-width="2" d="M141.293,-763.7284C141.293,-673.1923 141.293,-277 141.293,-277 141.293,-277 1355.293,-277 1355.293,-277 1355.293,-277 1355.293,-170.2067 1355.293,-170.2067"/>
<polygon fill="#cc79a7" stroke="#cc79a7" stroke-width="2" points="1358.7931,-170.2067 1355.293,-160.2067 1351.7931,-170.2067 1358.7931,-170.2067"/>
</g>
<!-- node_d6136d04&#45;&gt;node_06ba7345 -->
<g id="edge49" class="edge">
<title>node_d6136d04-&gt;node_06ba7345</title>
<path fill="none" stroke="#f0e442" stroke-width="2" d="M367.8139,-836C367.8139,-836 393.7395,-836 393.7395,-836"/>
<polygon fill="#f0e442" stroke="#f0e442" stroke-width="2" points="393.7396,-839.5001 403.7395,-836 393.7395,-832.5001 393.7396,-839.5001"/>
</g>
<!-- node_5f10d23f -->
<g id="node35" class="node">
<title>node_5f10d23f</title>
<path fill="#6db33f" stroke="#000000" d="M970.0466,-430C970.0466,-430 888.4514,-430 888.4514,-430 882.4514,-430 876.4514,-424 876.4514,-418 876.4514,-418 876.4514,-406 876.4514,-406 876.4514,-400 882.4514,-394 888.4514,-394 888.4514,-394 970.0466,-394 970.0466,-394 976.0466,-394 982.0466,-400 982.0466,-406 982.0466,-406 982.0466,-418 982.0466,-418 982.0466,-424 976.0466,-430 970.0466,-430"/>
<text text-anchor="middle" x="929.249" y="-407.8" font-family="Times,serif" font-size="14.00" fill="#000000">25: loadImage()</text>
</g>
<!-- node_d6136d04&#45;&gt;node_5f10d23f -->
<g id="edge50" class="edge">
<title>node_d6136d04-&gt;node_5f10d23f</title>
<path fill="none" stroke="#f0e442" stroke-width="2" d="M293.293,-817.7813C293.293,-736.625 293.293,-412 293.293,-412 293.293,-412 866.3936,-412 866.3936,-412"/>
<polygon fill="#f0e442" stroke="#f0e442" stroke-width="2" points="866.3936,-415.5001 876.3936,-412 866.3936,-408.5001 866.3936,-415.5001"/>
</g>
<!-- node_54aa6549&#45;&gt;node_efa2ebb6 -->
<g id="edge51" class="edge">
<title>node_54aa6549-&gt;node_efa2ebb6</title>
<path fill="none" stroke="#e69f00" stroke-width="2" d="M1260.7565,-148C1286.9433,-148 1308.293,-148 1308.293,-148 1308.293,-148 1308.293,-977.6825 1308.293,-977.6825"/>
<polygon fill="#e69f00" stroke="#e69f00" stroke-width="2" points="1304.7931,-977.6825 1308.293,-987.6825 1311.7931,-977.6825 1304.7931,-977.6825"/>
</g>
<!-- node_54aa6549&#45;&gt;node_6d0faa0f -->
<g id="edge52" class="edge">
<title>node_54aa6549-&gt;node_6d0faa0f</title>
<path fill="none" stroke="#e69f00" stroke-width="2" d="M1260.7926,-136C1260.7926,-136 1308.2933,-136 1308.2933,-136"/>
<polygon fill="#e69f00" stroke="#e69f00" stroke-width="2" points="1308.2933,-139.5001 1318.2933,-136 1308.2932,-132.5001 1308.2933,-139.5001"/>
</g>
<!-- node_e171a63d -->
<g id="node38" class="node">
<title>node_e171a63d</title>
<path fill="#6db33f" stroke="#000000" d="M1242.9273,-943C1242.9273,-943 1088.1417,-943 1088.1417,-943 1082.1417,-943 1076.1417,-937 1076.1417,-931 1076.1417,-931 1076.1417,-919 1076.1417,-919 1076.1417,-913 1082.1417,-907 1088.1417,-907 1088.1417,-907 1242.9273,-907 1242.9273,-907 1248.9273,-907 1254.9273,-913 1254.9273,-919 1254.9273,-919 1254.9273,-931 1254.9273,-931 1254.9273,-937 1248.9273,-943 1242.9273,-943"/>
<text text-anchor="middle" x="1165.5345" y="-920.8" font-family="Times,serif" font-size="14.00" fill="#000000">195: scaleCenteredOnPoint()</text>
</g>
<!-- node_4d053972&#45;&gt;node_e171a63d -->
<g id="edge53" class="edge">
<title>node_4d053972-&gt;node_e171a63d</title>
<path fill="none" stroke="#56b4e9" stroke-width="2" d="M1007.9287,-911.5C1007.9287,-911.5 1065.7681,-911.5 1065.7681,-911.5"/>
<polygon fill="#56b4e9" stroke="#56b4e9" stroke-width="2" points="1065.7681,-915.0001 1075.7681,-911.5 1065.7681,-908.0001 1065.7681,-915.0001"/>
</g>
<!-- node_538d46d6 -->
<g id="node17" class="node">
<title>node_538d46d6</title>
<path fill="#6db33f" stroke="#000000" d="M1233.4889,-106C1233.4889,-106 1097.5801,-106 1097.5801,-106 1091.5801,-106 1085.5801,-100 1085.5801,-94 1085.5801,-94 1085.5801,-82 1085.5801,-82 1085.5801,-76 1091.5801,-70 1097.5801,-70 1097.5801,-70 1233.4889,-70 1233.4889,-70 1239.4889,-70 1245.4889,-76 1245.4889,-82 1245.4889,-82 1245.4889,-94 1245.4889,-94 1245.4889,-100 1239.4889,-106 1233.4889,-106"/>
<text text-anchor="middle" x="1165.5345" y="-83.8" font-family="Times,serif" font-size="14.00" fill="#000000">150: computeMagLevel()</text>
</g>
<!-- node_312ef927 -->
<g id="node18" class="node">
<title>node_312ef927</title>
<path fill="#966f33" stroke="#000000" d="M1247.4959,-1051C1247.4959,-1051 1083.5731,-1051 1083.5731,-1051 1077.5731,-1051 1071.5731,-1045 1071.5731,-1039 1071.5731,-1039 1071.5731,-1027 1071.5731,-1027 1071.5731,-1021 1077.5731,-1015 1083.5731,-1015 1083.5731,-1015 1247.4959,-1015 1247.4959,-1015 1253.4959,-1015 1259.4959,-1021 1259.4959,-1027 1259.4959,-1027 1259.4959,-1039 1259.4959,-1039 1259.4959,-1045 1253.4959,-1051 1247.4959,-1051"/>
<text text-anchor="middle" x="1165.5345" y="-1028.8" font-family="Times,serif" font-size="14.00" fill="#000000">366: computeResampledFast()</text>
</g>
<!-- node_312ef927&#45;&gt;node_648ac16b -->
<g id="edge54" class="edge">
<title>node_312ef927-&gt;node_648ac16b</title>
<path fill="none" stroke="#cc79a7" stroke-width="2" d="M1259.278,-1046.5C1259.278,-1046.5 1309.1586,-1046.5 1309.1586,-1046.5"/>
<polygon fill="#cc79a7" stroke="#cc79a7" stroke-width="2" points="1309.1587,-1050.0001 1319.1586,-1046.5 1309.1586,-1043.0001 1309.1587,-1050.0001"/>
</g>
<!-- node_312ef927&#45;&gt;node_efa2ebb6 -->
<g id="edge55" class="edge">
<title>node_312ef927-&gt;node_efa2ebb6</title>
<path fill="none" stroke="#cc79a7" stroke-width="2" d="M1259.278,-1019.5C1259.278,-1019.5 1286.5133,-1019.5 1286.5133,-1019.5"/>
<polygon fill="#cc79a7" stroke="#cc79a7" stroke-width="2" points="1286.5133,-1023.0001 1296.5133,-1019.5 1286.5132,-1016.0001 1286.5133,-1023.0001"/>
</g>
<!-- node_1448ada9&#45;&gt;node_bfd3c473 -->
<g id="edge56" class="edge">
<title>node_1448ada9-&gt;node_bfd3c473</title>
<path fill="none" stroke="#e69f00" stroke-width="2" d="M1028.293,-808.2434C1028.293,-815.4297 1028.293,-822 1028.293,-822 1028.293,-822 1074.5104,-822 1074.5104,-822"/>
<polygon fill="#e69f00" stroke="#e69f00" stroke-width="2" points="1074.5104,-825.5001 1084.5104,-822 1074.5103,-818.5001 1074.5104,-825.5001"/>
</g>
<!-- node_e4c483db&#45;&gt;node_54aa6549 -->
<g id="edge57" class="edge">
<title>node_e4c483db-&gt;node_54aa6549</title>
<path fill="none" stroke="#009e73" stroke-width="2" d="M1025.7399,-628C1056.3009,-628 1082.293,-628 1082.293,-628 1082.293,-628 1082.293,-170.1648 1082.293,-170.1648"/>
<polygon fill="#009e73" stroke="#009e73" stroke-width="2" points="1085.7931,-170.1647 1082.293,-160.1648 1078.7931,-170.1648 1085.7931,-170.1647"/>
</g>
<!-- node_4cd32aa5 -->
<g id="node27" class="node">
<title>node_4cd32aa5</title>
<path fill="#6db33f" stroke="#000000" d="M1224.8807,-52C1224.8807,-52 1106.1883,-52 1106.1883,-52 1100.1883,-52 1094.1883,-46 1094.1883,-40 1094.1883,-40 1094.1883,-28 1094.1883,-28 1094.1883,-22 1100.1883,-16 1106.1883,-16 1106.1883,-16 1224.8807,-16 1224.8807,-16 1230.8807,-16 1236.8807,-22 1236.8807,-28 1236.8807,-28 1236.8807,-40 1236.8807,-40 1236.8807,-46 1230.8807,-52 1224.8807,-52"/>
<text text-anchor="middle" x="1165.5345" y="-29.8" font-family="Times,serif" font-size="14.00" fill="#000000">31: getInputValueInt()</text>
</g>
<!-- node_fbf6af4c&#45;&gt;node_4cd32aa5 -->
<g id="edge58" class="edge">
<title>node_fbf6af4c-&gt;node_4cd32aa5</title>
<path fill="none" stroke="#f0e442" stroke-width="2" d="M992.5692,-20C992.5692,-20 1084.1127,-20 1084.1127,-20"/>
<polygon fill="#f0e442" stroke="#f0e442" stroke-width="2" points="1084.1127,-23.5001 1094.1127,-20 1084.1126,-16.5001 1084.1127,-23.5001"/>
</g>
<!-- node_15d2065b&#45;&gt;node_4cd32aa5 -->
<g id="edge59" class="edge">
<title>node_15d2065b-&gt;node_4cd32aa5</title>
<path fill="none" stroke="#009e73" stroke-width="2" d="M994.2205,-250C1010.9274,-250 1024.293,-250 1024.293,-250 1024.293,-250 1024.293,-36 1024.293,-36 1024.293,-36 1084.0862,-36 1084.0862,-36"/>
<polygon fill="#009e73" stroke="#009e73" stroke-width="2" points="1084.0862,-39.5001 1094.0862,-36 1084.0861,-32.5001 1084.0862,-39.5001"/>
</g>
<!-- node_f8013a04&#45;&gt;node_4cd32aa5 -->
<g id="edge60" class="edge">
<title>node_f8013a04-&gt;node_4cd32aa5</title>
<path fill="none" stroke="#f0e442" stroke-width="2" d="M988.7997,-736C1017.7138,-736 1046.293,-736 1046.293,-736 1046.293,-736 1046.293,-44 1046.293,-44 1046.293,-44 1084.106,-44 1084.106,-44"/>
<polygon fill="#f0e442" stroke="#f0e442" stroke-width="2" points="1084.1061,-47.5001 1094.106,-44 1084.106,-40.5001 1084.1061,-47.5001"/>
</g>
<!-- node_4123d51e&#45;&gt;node_4cd32aa5 -->
<g id="edge61" class="edge">
<title>node_4123d51e-&gt;node_4cd32aa5</title>
<path fill="none" stroke="#d55e00" stroke-width="2" d="M991.9105,-682C1017.0984,-682 1040.293,-682 1040.293,-682 1040.293,-682 1040.293,-40 1040.293,-40 1040.293,-40 1084.1335,-40 1084.1335,-40"/>
<polygon fill="#d55e00" stroke="#d55e00" stroke-width="2" points="1084.1335,-43.5001 1094.1335,-40 1084.1335,-36.5001 1084.1335,-43.5001"/>
</g>
<!-- node_3055b3ff&#45;&gt;node_4cd32aa5 -->
<g id="edge62" class="edge">
<title>node_3055b3ff-&gt;node_4cd32aa5</title>
<path fill="none" stroke="#cc79a7" stroke-width="2" d="M1014.0356,-1046.5C1035.3485,-1046.5 1052.293,-1046.5 1052.293,-1046.5 1052.293,-1046.5 1052.293,-48 1052.293,-48 1052.293,-48 1084.1382,-48 1084.1382,-48"/>
<polygon fill="#cc79a7" stroke="#cc79a7" stroke-width="2" points="1084.1383,-51.5001 1094.1382,-48 1084.1382,-44.5001 1084.1383,-51.5001"/>
</g>
<!-- node_172d0c41&#45;&gt;node_4cd32aa5 -->
<g id="edge63" class="edge">
<title>node_172d0c41-&gt;node_4cd32aa5</title>
<path fill="none" stroke="#e69f00" stroke-width="2" d="M1000.293,-177.9181C1000.293,-133.7577 1000.293,-24 1000.293,-24 1000.293,-24 1084.0182,-24 1084.0182,-24"/>
<polygon fill="#e69f00" stroke="#e69f00" stroke-width="2" points="1084.0183,-27.5001 1094.0182,-24 1084.0182,-20.5001 1084.0183,-27.5001"/>
</g>
<!-- node_92d5a9f6&#45;&gt;node_4cd32aa5 -->
<g id="edge64" class="edge">
<title>node_92d5a9f6-&gt;node_4cd32aa5</title>
<path fill="none" stroke="#d55e00" stroke-width="2" d="M993.8936,-148C1004.0621,-148 1011.293,-148 1011.293,-148 1011.293,-148 1011.293,-32 1011.293,-32 1011.293,-32 1084.2831,-32 1084.2831,-32"/>
<polygon fill="#d55e00" stroke="#d55e00" stroke-width="2" points="1084.2832,-35.5001 1094.2831,-32 1084.2831,-28.5001 1084.2832,-35.5001"/>
</g>
<!-- node_de41ddd7&#45;&gt;node_4cd32aa5 -->
<g id="edge65" class="edge">
<title>node_de41ddd7-&gt;node_4cd32aa5</title>
<path fill="none" stroke="#cc79a7" stroke-width="2" d="M993.8597,-94C1002.9614,-94 1009.293,-94 1009.293,-94 1009.293,-94 1009.293,-28 1009.293,-28 1009.293,-28 1084.272,-28 1084.272,-28"/>
<polygon fill="#cc79a7" stroke="#cc79a7" stroke-width="2" points="1084.272,-31.5001 1094.272,-28 1084.2719,-24.5001 1084.272,-31.5001"/>
</g>
<!-- node_752ea27d&#45;&gt;node_e171a63d -->
<g id="edge66" class="edge">
<title>node_752ea27d-&gt;node_e171a63d</title>
<path fill="none" stroke="#0072b2" stroke-width="2" d="M997.5926,-938.5C997.5926,-938.5 1065.7813,-938.5 1065.7813,-938.5"/>
<polygon fill="#0072b2" stroke="#0072b2" stroke-width="2" points="1065.7813,-942.0001 1075.7813,-938.5 1065.7812,-935.0001 1065.7813,-942.0001"/>
</g>
<!-- node_d2032d16&#45;&gt;node_538d46d6 -->
<g id="edge67" class="edge">
<title>node_d2032d16-&gt;node_538d46d6</title>
<path fill="none" stroke="#d55e00" stroke-width="2" d="M999.4354,-574C1029.7018,-574 1058.293,-574 1058.293,-574 1058.293,-574 1058.293,-82 1058.293,-82 1058.293,-82 1075.632,-82 1075.632,-82"/>
<polygon fill="#d55e00" stroke="#d55e00" stroke-width="2" points="1075.6321,-85.5001 1085.632,-82 1075.632,-78.5001 1075.6321,-85.5001"/>
</g>
</g>
</svg>