<?xml version="1.0" encoding="UTF-8" standalone="no"?>
<!DOCTYPE svg PUBLIC "-//W3C//DTD SVG 1.1//EN" "http://www.w3.org/Graphics/SVG/1.1/DTD/svg11.dtd">
<!-- Generated by graphviz version 2.40.1 (20161225.0304)
 -->
<!-- Title: G Pages: 1 -->
<svg width="1391pt" height="1181pt" viewBox="0.00 0.00 1390.86 1181.00" xmlns="http://www.w3.org/2000/svg" xmlns:xlink="http://www.w3.org/1999/xlink">
<g id="graph0" class="graph" transform="scale(1 1) rotate(0) translate(4 1177)">
<title>G</title>
<polygon fill="#ffffff" stroke="transparent" points="-4,4 -4,-1177 1386.8596,-1177 1386.8596,4 -4,4"/>
<g id="clust1" class="cluster">
<title>cluster_a64de308</title>
<polygon fill="none" stroke="#000000" stroke-dasharray="1,5" points="490.1384,-8 490.1384,-517 713.8166,-517 713.8166,-8 490.1384,-8"/>
<text text-anchor="middle" x="601.9775" y="-500.4" font-family="Times,serif" font-size="14.00" fill="#000000">File: drawsteps</text>
</g>
<g id="clust2" class="cluster">
<title>cluster_552e02bb</title>
<polygon fill="none" stroke="#000000" stroke-dasharray="1,5" points="8,-359 8,-436 470.1384,-436 470.1384,-359 8,-359"/>
<text text-anchor="middle" x="239.0692" y="-419.4" font-family="Times,serif" font-size="14.00" fill="#000000">File: main</text>
</g>
<g id="clust3" class="cluster">
<title>cluster_6acef6a1</title>
<polygon fill="none" stroke="#000000" stroke-dasharray="1,5" points="733.8166,-62 733.8166,-1165 1374.8596,-1165 1374.8596,-62 733.8166,-62"/>
<text text-anchor="middle" x="1054.3381" y="-1148.4" font-family="Times,serif" font-size="14.00" fill="#000000">File: utils</text>
</g>
<!-- node_e0b781da -->
<g id="node1" class="node">
<title>node_e0b781da</title>
<path fill="#cccccc" stroke="#000000" d="M659.9853,-484C659.9853,-484 543.9697,-484 543.9697,-484 537.9697,-484 531.9697,-478 531.9697,-472 531.9697,-472 531.9697,-460 531.9697,-460 531.9697,-454 537.9697,-448 543.9697,-448 543.9697,-448 659.9853,-448 659.9853,-448 665.9853,-448 671.9853,-454 671.9853,-460 671.9853,-460 671.9853,-472 671.9853,-472 671.9853,-478 665.9853,-484 659.9853,-484"/>
<text text-anchor="middle" x="601.9775" y="-461.8" font-family="Times,serif" font-size="14.00" fill="#000000">221: drawAvgCircle()</text>
</g>
<!-- node_c1f65bc3 -->
<g id="node33" class="node">
<title>node_c1f65bc3</title>
<path fill="#6db33f" stroke="#000000" d="M1355.0963,-862C1355.0963,-862 1226.1509,-862 1226.1509,-862 1220.1509,-862 1214.1509,-856 1214.1509,-850 1214.1509,-850 1214.1509,-838 1214.1509,-838 1214.1509,-832 1220.1509,-826 1226.1509,-826 1226.1509,-826 1355.0963,-826 1355.0963,-826 1361.0963,-826 1367.0963,-832 1367.0963,-838 1367.0963,-838 1367.0963,-850 1367.0963,-850 1367.0963,-856 1361.0963,-862 1355.0963,-862"/>
<text text-anchor="middle" x="1290.6236" y="-839.8" font-family="Times,serif" font-size="14.00" fill="#000000">250: get_avg_pixel_gs()</text>
</g>
<!-- node_e0b781da&#45;&gt;node_c1f65bc3 -->
<g id="edge1" class="edge">
<title>node_e0b781da-&gt;node_c1f65bc3</title>
<path fill="none" stroke="#56b4e9" stroke-width="2" d="M602.8596,-484.3771C602.8596,-556.598 602.8596,-817 602.8596,-817 602.8596,-817 1221.8596,-817 1221.8596,-817 1221.8596,-817 1221.8596,-817.8841 1221.8596,-817.8841"/>
<polygon fill="#56b4e9" stroke="#56b4e9" stroke-width="2" points="1218.3597,-815.8408 1221.8596,-825.8408 1225.3597,-815.8409 1218.3597,-815.8408"/>
</g>
<!-- node_fa665858 -->
<g id="node2" class="node">
<title>node_fa665858</title>
<path fill="#6db33f" stroke="#000000" d="M653.5387,-52C653.5387,-52 550.4163,-52 550.4163,-52 544.4163,-52 538.4163,-46 538.4163,-40 538.4163,-40 538.4163,-28 538.4163,-28 538.4163,-22 544.4163,-16 550.4163,-16 550.4163,-16 653.5387,-16 653.5387,-16 659.5387,-16 665.5387,-22 665.5387,-28 665.5387,-28 665.5387,-40 665.5387,-40 665.5387,-46 659.5387,-52 653.5387,-52"/>
<text text-anchor="middle" x="601.9775" y="-29.8" font-family="Times,serif" font-size="14.00" fill="#000000">1: drawBaseBeam()</text>
</g>
<!-- node_4ef65244 -->
<g id="node3" class="node">
<title>node_4ef65244</title>
<path fill="#cccccc" stroke="#000000" d="M674.5496,-160C674.5496,-160 529.4054,-160 529.4054,-160 523.4054,-160 517.4054,-154 517.4054,-148 517.4054,-148 517.4054,-136 517.4054,-136 517.4054,-130 523.4054,-124 529.4054,-124 529.4054,-124 674.5496,-124 674.5496,-124 680.5496,-124 686.5496,-130 686.5496,-136 686.5496,-136 686.5496,-148 686.5496,-148 686.5496,-154 680.5496,-160 674.5496,-160"/>
<text text-anchor="middle" x="601.9775" y="-137.8" font-family="Times,serif" font-size="14.00" fill="#000000">175: drawBaseComposite()</text>
</g>
<!-- node_bcfebda8 -->
<g id="node14" class="node">
<title>node_bcfebda8</title>
<path fill="#cccccc" stroke="#000000" d="M913.4314,-160C913.4314,-160 780.1998,-160 780.1998,-160 774.1998,-160 768.1998,-154 768.1998,-148 768.1998,-148 768.1998,-136 768.1998,-136 768.1998,-130 774.1998,-124 780.1998,-124 780.1998,-124 913.4314,-124 913.4314,-124 919.4314,-124 925.4314,-130 925.4314,-136 925.4314,-136 925.4314,-148 925.4314,-148 925.4314,-154 919.4314,-160 913.4314,-160"/>
<text text-anchor="middle" x="846.8156" y="-137.8" font-family="Times,serif" font-size="14.00" fill="#000000">48: MakeZoomHandler()</text>
</g>
<!-- node_4ef65244&#45;&gt;node_bcfebda8 -->
<g id="edge2" class="edge">
<title>node_4ef65244-&gt;node_bcfebda8</title>
<path fill="none" stroke="#f0e442" stroke-width="2" d="M686.5797,-136C686.5797,-136 757.9712,-136 757.9712,-136"/>
<polygon fill="#f0e442" stroke="#f0e442" stroke-width="2" points="757.9713,-139.5001 767.9712,-136 757.9712,-132.5001 757.9713,-139.5001"/>
</g>
<!-- node_c51c7237 -->
<g id="node38" class="node">
<title>node_c51c7237</title>
<path fill="#cccccc" stroke="#000000" d="M902.93,-106C902.93,-106 790.7012,-106 790.7012,-106 784.7012,-106 778.7012,-100 778.7012,-94 778.7012,-94 778.7012,-82 778.7012,-82 778.7012,-76 784.7012,-70 790.7012,-70 790.7012,-70 902.93,-70 902.93,-70 908.93,-70 914.93,-76 914.93,-82 914.93,-82 914.93,-94 914.93,-94 914.93,-100 908.93,-106 902.93,-106"/>
<text text-anchor="middle" x="846.8156" y="-83.8" font-family="Times,serif" font-size="14.00" fill="#000000">187: scaleOnCenter()</text>
</g>
<!-- node_4ef65244&#45;&gt;node_c51c7237 -->
<g id="edge3" class="edge">
<title>node_4ef65244-&gt;node_c51c7237</title>
<path fill="none" stroke="#f0e442" stroke-width="2" d="M683.8596,-123.9296C683.8596,-112.0917 683.8596,-98.8 683.8596,-98.8 683.8596,-98.8 768.6518,-98.8 768.6518,-98.8"/>
<polygon fill="#f0e442" stroke="#f0e442" stroke-width="2" points="768.6518,-102.3001 778.6518,-98.8 768.6517,-95.3001 768.6518,-102.3001"/>
</g>
<!-- node_7a5cbd7f -->
<g id="node4" class="node">
<title>node_7a5cbd7f</title>
<path fill="#cccccc" stroke="#000000" d="M658.3619,-214C658.3619,-214 545.5931,-214 545.5931,-214 539.5931,-214 533.5931,-208 533.5931,-202 533.5931,-202 533.5931,-190 533.5931,-190 533.5931,-184 539.5931,-178 545.5931,-178 545.5931,-178 658.3619,-178 658.3619,-178 664.3619,-178 670.3619,-184 670.3619,-190 670.3619,-190 670.3619,-202 670.3619,-202 670.3619,-208 664.3619,-214 658.3619,-214"/>
<text text-anchor="middle" x="601.9775" y="-191.8" font-family="Times,serif" font-size="14.00" fill="#000000">84: drawBaseImage()</text>
</g>
<!-- node_7a5cbd7f&#45;&gt;node_bcfebda8 -->
<g id="edge4" class="edge">
<title>node_7a5cbd7f-&gt;node_bcfebda8</title>
<path fill="none" stroke="#cc79a7" stroke-width="2" d="M670.7956,-187C710.5892,-187 752.8596,-187 752.8596,-187 752.8596,-187 752.8596,-148 752.8596,-148 752.8596,-148 757.9553,-148 757.9553,-148"/>
<polygon fill="#cc79a7" stroke="#cc79a7" stroke-width="2" points="757.9553,-151.5001 767.9553,-148 757.9552,-144.5001 757.9553,-151.5001"/>
</g>
<!-- node_f9c699f9 -->
<g id="node21" class="node">
<title>node_f9c699f9</title>
<path fill="#6db33f" stroke="#000000" d="M918.2798,-214C918.2798,-214 775.3514,-214 775.3514,-214 769.3514,-214 763.3514,-208 763.3514,-202 763.3514,-202 763.3514,-190 763.3514,-190 763.3514,-184 769.3514,-178 775.3514,-178 775.3514,-178 918.2798,-178 918.2798,-178 924.2798,-178 930.2798,-184 930.2798,-190 930.2798,-190 930.2798,-202 930.2798,-202 930.2798,-208 924.2798,-214 918.2798,-214"/>
<text text-anchor="middle" x="846.8156" y="-191.8" font-family="Times,serif" font-size="14.00" fill="#000000">175: fitImageProportions()</text>
</g>
<!-- node_7a5cbd7f&#45;&gt;node_f9c699f9 -->
<g id="edge5" class="edge">
<title>node_7a5cbd7f-&gt;node_f9c699f9</title>
<path fill="none" stroke="#cc79a7" stroke-width="2" d="M670.5041,-196C670.5041,-196 753.5002,-196 753.5002,-196"/>
<polygon fill="#cc79a7" stroke="#cc79a7" stroke-width="2" points="753.5002,-199.5001 763.5002,-196 753.5001,-192.5001 753.5002,-199.5001"/>
</g>
<!-- node_4bdb2de5 -->
<g id="node5" class="node">
<title>node_4bdb2de5</title>
<path fill="#cccccc" stroke="#000000" d="M682.8605,-268C682.8605,-268 521.0945,-268 521.0945,-268 515.0945,-268 509.0945,-262 509.0945,-256 509.0945,-256 509.0945,-244 509.0945,-244 509.0945,-238 515.0945,-232 521.0945,-232 521.0945,-232 682.8605,-232 682.8605,-232 688.8605,-232 694.8605,-238 694.8605,-244 694.8605,-244 694.8605,-256 694.8605,-256 694.8605,-262 688.8605,-268 682.8605,-268"/>
<text text-anchor="middle" x="601.9775" y="-245.8" font-family="Times,serif" font-size="14.00" fill="#000000">402: drawGroundtruthImage()</text>
</g>
<!-- node_4bdb2de5&#45;&gt;node_f9c699f9 -->
<g id="edge6" class="edge">
<title>node_4bdb2de5-&gt;node_f9c699f9</title>
<path fill="none" stroke="#0072b2" stroke-width="2" d="M690.8596,-231.9561C690.8596,-219.4367 690.8596,-205 690.8596,-205 690.8596,-205 753.3588,-205 753.3588,-205"/>
<polygon fill="#0072b2" stroke="#0072b2" stroke-width="2" points="753.3588,-208.5001 763.3588,-205 753.3588,-201.5001 753.3588,-208.5001"/>
</g>
<!-- node_bd6d3e28 -->
<g id="node6" class="node">
<title>node_bd6d3e28</title>
<path fill="#cccccc" stroke="#000000" d="M666.9867,-106C666.9867,-106 536.9683,-106 536.9683,-106 530.9683,-106 524.9683,-100 524.9683,-94 524.9683,-94 524.9683,-82 524.9683,-82 524.9683,-76 530.9683,-70 536.9683,-70 536.9683,-70 666.9867,-70 666.9867,-70 672.9867,-70 678.9867,-76 678.9867,-82 678.9867,-82 678.9867,-94 678.9867,-94 678.9867,-100 672.9867,-106 666.9867,-106"/>
<text text-anchor="middle" x="601.9775" y="-83.8" font-family="Times,serif" font-size="14.00" fill="#000000">256: drawProbeLayout()</text>
</g>
<!-- node_ecfc12b5 -->
<g id="node20" class="node">
<title>node_ecfc12b5</title>
<path fill="#6db33f" stroke="#000000" d="M1332.4756,-579C1332.4756,-579 1248.7716,-579 1248.7716,-579 1242.7716,-579 1236.7716,-573 1236.7716,-567 1236.7716,-567 1236.7716,-555 1236.7716,-555 1236.7716,-549 1242.7716,-543 1248.7716,-543 1248.7716,-543 1332.4756,-543 1332.4756,-543 1338.4756,-543 1344.4756,-549 1344.4756,-555 1344.4756,-555 1344.4756,-567 1344.4756,-567 1344.4756,-573 1338.4756,-579 1332.4756,-579"/>
<text text-anchor="middle" x="1290.6236" y="-556.8" font-family="Times,serif" font-size="14.00" fill="#000000">278: drawGrid()</text>
</g>
<!-- node_bd6d3e28&#45;&gt;node_ecfc12b5 -->
<g id="edge7" class="edge">
<title>node_bd6d3e28-&gt;node_ecfc12b5</title>
<path fill="none" stroke="#000000" stroke-width="2" d="M679.2335,-91.6C696.5258,-91.6 709.8596,-91.6 709.8596,-91.6 709.8596,-91.6 709.8596,-549.5 709.8596,-549.5 709.8596,-549.5 1226.7682,-549.5 1226.7682,-549.5"/>
<polygon fill="#000000" stroke="#000000" stroke-width="2" points="1226.7683,-553.0001 1236.7682,-549.5 1226.7682,-546.0001 1226.7683,-553.0001"/>
</g>
<!-- node_2e67b969 -->
<g id="node24" class="node">
<title>node_2e67b969</title>
<path fill="#cccccc" stroke="#000000" d="M894.3556,-430C894.3556,-430 799.2756,-430 799.2756,-430 793.2756,-430 787.2756,-424 787.2756,-418 787.2756,-418 787.2756,-406 787.2756,-406 787.2756,-400 793.2756,-394 799.2756,-394 799.2756,-394 894.3556,-394 894.3556,-394 900.3556,-394 906.3556,-400 906.3556,-406 906.3556,-406 906.3556,-418 906.3556,-418 906.3556,-424 900.3556,-430 894.3556,-430"/>
<text text-anchor="middle" x="846.8156" y="-407.8" font-family="Times,serif" font-size="14.00" fill="#000000">39: getColsInput()</text>
</g>
<!-- node_bd6d3e28&#45;&gt;node_2e67b969 -->
<g id="edge8" class="edge">
<title>node_bd6d3e28-&gt;node_2e67b969</title>
<path fill="none" stroke="#000000" stroke-width="2" d="M679.0754,-77.2C707.9359,-77.2 733.8596,-77.2 733.8596,-77.2 733.8596,-77.2 733.8596,-399.1429 733.8596,-399.1429 733.8596,-399.1429 777.03,-399.1429 777.03,-399.1429"/>
<polygon fill="#000000" stroke="#000000" stroke-width="2" points="777.0301,-402.643 787.03,-399.1429 777.03,-395.643 777.0301,-402.643"/>
</g>
<!-- node_ec0d5306 -->
<g id="node28" class="node">
<title>node_ec0d5306</title>
<path fill="#cccccc" stroke="#000000" d="M897.5719,-538C897.5719,-538 796.0593,-538 796.0593,-538 790.0593,-538 784.0593,-532 784.0593,-526 784.0593,-526 784.0593,-514 784.0593,-514 784.0593,-508 790.0593,-502 796.0593,-502 796.0593,-502 897.5719,-502 897.5719,-502 903.5719,-502 909.5719,-508 909.5719,-514 909.5719,-514 909.5719,-526 909.5719,-526 909.5719,-532 903.5719,-538 897.5719,-538"/>
<text text-anchor="middle" x="846.8156" y="-515.8" font-family="Times,serif" font-size="14.00" fill="#000000">38: getRowsInput()</text>
</g>
<!-- node_bd6d3e28&#45;&gt;node_ec0d5306 -->
<g id="edge9" class="edge">
<title>node_bd6d3e28-&gt;node_ec0d5306</title>
<path fill="none" stroke="#000000" stroke-width="2" d="M679.0251,-84.4C704.2177,-84.4 725.8596,-84.4 725.8596,-84.4 725.8596,-84.4 725.8596,-508 725.8596,-508 725.8596,-508 773.8577,-508 773.8577,-508"/>
<polygon fill="#000000" stroke="#000000" stroke-width="2" points="773.8577,-511.5001 783.8577,-508 773.8576,-504.5001 773.8577,-511.5001"/>
</g>
<!-- node_e5c08a68 -->
<g id="node36" class="node">
<title>node_e5c08a68</title>
<path fill="#6db33f" stroke="#000000" d="M1151.8609,-106C1151.8609,-106 1014.3413,-106 1014.3413,-106 1008.3413,-106 1002.3413,-100 1002.3413,-94 1002.3413,-94 1002.3413,-82 1002.3413,-82 1002.3413,-76 1008.3413,-70 1014.3413,-70 1014.3413,-70 1151.8609,-70 1151.8609,-70 1157.8609,-70 1163.8609,-76 1163.8609,-82 1163.8609,-82 1163.8609,-94 1163.8609,-94 1163.8609,-100 1157.8609,-106 1151.8609,-106"/>
<text text-anchor="middle" x="1083.1011" y="-83.8" font-family="Times,serif" font-size="14.00" fill="#000000">328: repeatDrawOnGrid()</text>
</g>
<!-- node_bd6d3e28&#45;&gt;node_e5c08a68 -->
<g id="edge10" class="edge">
<title>node_bd6d3e28-&gt;node_e5c08a68</title>
<path fill="none" stroke="#000000" stroke-width="2" d="M672.8596,-69.8408C672.8596,-64.9567 672.8596,-61 672.8596,-61 672.8596,-61 1083.8596,-61 1083.8596,-61 1083.8596,-61 1083.8596,-61.8841 1083.8596,-61.8841"/>
<polygon fill="#000000" stroke="#000000" stroke-width="2" points="1080.3597,-59.8408 1083.8596,-69.8408 1087.3597,-59.8409 1080.3597,-59.8408"/>
</g>
<!-- node_541a7b6a -->
<g id="node7" class="node">
<title>node_541a7b6a</title>
<path fill="#cccccc" stroke="#000000" d="M693.6559,-376C693.6559,-376 510.2991,-376 510.2991,-376 504.2991,-376 498.2991,-370 498.2991,-364 498.2991,-364 498.2991,-352 498.2991,-352 498.2991,-346 504.2991,-340 510.2991,-340 510.2991,-340 693.6559,-340 693.6559,-340 699.6559,-340 705.6559,-346 705.6559,-352 705.6559,-352 705.6559,-364 705.6559,-364 705.6559,-370 699.6559,-376 693.6559,-376"/>
<text text-anchor="middle" x="601.9775" y="-353.8" font-family="Times,serif" font-size="14.00" fill="#000000">336: drawProbeLayoutSampling()</text>
</g>
<!-- node_ec2f62f2 -->
<g id="node18" class="node">
<title>node_ec2f62f2</title>
<path fill="#cccccc" stroke="#000000" d="M939.8136,-322C939.8136,-322 753.8176,-322 753.8176,-322 747.8176,-322 741.8176,-316 741.8176,-310 741.8176,-310 741.8176,-298 741.8176,-298 741.8176,-292 747.8176,-286 753.8176,-286 753.8176,-286 939.8136,-286 939.8136,-286 945.8136,-286 951.8136,-292 951.8136,-298 951.8136,-298 951.8136,-310 951.8136,-310 951.8136,-316 945.8136,-322 939.8136,-322"/>
<text text-anchor="middle" x="846.8156" y="-299.8" font-family="Times,serif" font-size="14.00" fill="#000000">355: computeResampledPreview()</text>
</g>
<!-- node_541a7b6a&#45;&gt;node_ec2f62f2 -->
<g id="edge11" class="edge">
<title>node_541a7b6a-&gt;node_ec2f62f2</title>
<path fill="none" stroke="#56b4e9" stroke-width="2" d="M705.6645,-352C729.4262,-352 747.8596,-352 747.8596,-352 747.8596,-352 747.8596,-332.1467 747.8596,-332.1467"/>
<polygon fill="#56b4e9" stroke="#56b4e9" stroke-width="2" points="751.3597,-332.1467 747.8596,-322.1467 744.3597,-332.1468 751.3597,-332.1467"/>
</g>
<!-- node_541a7b6a&#45;&gt;node_2e67b969 -->
<g id="edge12" class="edge">
<title>node_541a7b6a-&gt;node_2e67b969</title>
<path fill="none" stroke="#56b4e9" stroke-width="2" d="M697.8596,-376.2766C697.8596,-391.0586 697.8596,-409.4286 697.8596,-409.4286 697.8596,-409.4286 777.0878,-409.4286 777.0878,-409.4286"/>
<polygon fill="#56b4e9" stroke="#56b4e9" stroke-width="2" points="777.0878,-412.9287 787.0878,-409.4286 777.0877,-405.9287 777.0878,-412.9287"/>
</g>
<!-- node_541a7b6a&#45;&gt;node_ec0d5306 -->
<g id="edge13" class="edge">
<title>node_541a7b6a-&gt;node_ec0d5306</title>
<path fill="none" stroke="#56b4e9" stroke-width="2" d="M690.8596,-376.2686C690.8596,-418.6357 690.8596,-520 690.8596,-520 690.8596,-520 773.8319,-520 773.8319,-520"/>
<polygon fill="#56b4e9" stroke="#56b4e9" stroke-width="2" points="773.8319,-523.5001 783.8319,-520 773.8318,-516.5001 773.8319,-523.5001"/>
</g>
<!-- node_63517f9f -->
<g id="node8" class="node">
<title>node_63517f9f</title>
<path fill="#cccccc" stroke="#000000" d="M661.8773,-430C661.8773,-430 542.0777,-430 542.0777,-430 536.0777,-430 530.0777,-424 530.0777,-418 530.0777,-418 530.0777,-406 530.0777,-406 530.0777,-400 536.0777,-394 542.0777,-394 542.0777,-394 661.8773,-394 661.8773,-394 667.8773,-394 673.8773,-400 673.8773,-406 673.8773,-406 673.8773,-418 673.8773,-418 673.8773,-424 667.8773,-430 661.8773,-430"/>
<text text-anchor="middle" x="601.9775" y="-407.8" font-family="Times,serif" font-size="14.00" fill="#000000">367: drawResampled()</text>
</g>
<!-- node_5795ced3 -->
<g id="node19" class="node">
<title>node_5795ced3</title>
<path fill="#cccccc" stroke="#000000" d="M931.2238,-484C931.2238,-484 762.4074,-484 762.4074,-484 756.4074,-484 750.4074,-478 750.4074,-472 750.4074,-472 750.4074,-460 750.4074,-460 750.4074,-454 756.4074,-448 762.4074,-448 762.4074,-448 931.2238,-448 931.2238,-448 937.2238,-448 943.2238,-454 943.2238,-460 943.2238,-460 943.2238,-472 943.2238,-472 943.2238,-478 937.2238,-484 931.2238,-484"/>
<text text-anchor="middle" x="846.8156" y="-461.8" font-family="Times,serif" font-size="14.00" fill="#000000">442: computeResampledSlow()</text>
</g>
<!-- node_63517f9f&#45;&gt;node_5795ced3 -->
<g id="edge14" class="edge">
<title>node_63517f9f-&gt;node_5795ced3</title>
<path fill="none" stroke="#cc79a7" stroke-width="2" d="M673.9775,-424.8571C714.4239,-424.8571 756.8596,-424.8571 756.8596,-424.8571 756.8596,-424.8571 756.8596,-437.8344 756.8596,-437.8344"/>
<polygon fill="#cc79a7" stroke="#cc79a7" stroke-width="2" points="753.3597,-437.8343 756.8596,-447.8344 760.3597,-437.8344 753.3597,-437.8343"/>
</g>
<!-- node_63517f9f&#45;&gt;node_2e67b969 -->
<g id="edge15" class="edge">
<title>node_63517f9f-&gt;node_2e67b969</title>
<path fill="none" stroke="#cc79a7" stroke-width="2" d="M674.1128,-419.7143C674.1128,-419.7143 777.1465,-419.7143 777.1465,-419.7143"/>
<polygon fill="#cc79a7" stroke="#cc79a7" stroke-width="2" points="777.1466,-423.2144 787.1465,-419.7143 777.1465,-416.2144 777.1466,-423.2144"/>
</g>
<!-- node_63517f9f&#45;&gt;node_ec0d5306 -->
<g id="edge16" class="edge">
<title>node_63517f9f-&gt;node_ec0d5306</title>
<path fill="none" stroke="#cc79a7" stroke-width="2" d="M673.8948,-414.5714C679.3928,-414.5714 682.8596,-414.5714 682.8596,-414.5714 682.8596,-414.5714 682.8596,-526 682.8596,-526 682.8596,-526 773.8948,-526 773.8948,-526"/>
<polygon fill="#cc79a7" stroke="#cc79a7" stroke-width="2" points="773.8949,-529.5001 783.8948,-526 773.8948,-522.5001 773.8949,-529.5001"/>
</g>
<!-- node_e3fbafac -->
<g id="node9" class="node">
<title>node_e3fbafac</title>
<path fill="#cccccc" stroke="#000000" d="M665.1046,-322C665.1046,-322 538.8504,-322 538.8504,-322 532.8504,-322 526.8504,-316 526.8504,-310 526.8504,-310 526.8504,-298 526.8504,-298 526.8504,-292 532.8504,-286 538.8504,-286 538.8504,-286 665.1046,-286 665.1046,-286 671.1046,-286 677.1046,-292 677.1046,-298 677.1046,-298 677.1046,-310 677.1046,-310 677.1046,-316 671.1046,-322 665.1046,-322"/>
<text text-anchor="middle" x="601.9775" y="-299.8" font-family="Times,serif" font-size="14.00" fill="#000000">457: drawVirtualSEM()</text>
</g>
<!-- node_18c5d2be -->
<g id="node13" class="node">
<title>node_18c5d2be</title>
<path fill="#cccccc" stroke="#000000" d="M1166.1746,-160C1166.1746,-160 1000.0276,-160 1000.0276,-160 994.0276,-160 988.0276,-154 988.0276,-148 988.0276,-148 988.0276,-136 988.0276,-136 988.0276,-130 994.0276,-124 1000.0276,-124 1000.0276,-124 1166.1746,-124 1166.1746,-124 1172.1746,-124 1178.1746,-130 1178.1746,-136 1178.1746,-136 1178.1746,-148 1178.1746,-148 1178.1746,-154 1172.1746,-160 1166.1746,-160"/>
<text text-anchor="middle" x="1083.1011" y="-137.8" font-family="Times,serif" font-size="14.00" fill="#000000">539: ComputeProbeValue_gs()</text>
</g>
<!-- node_e3fbafac&#45;&gt;node_18c5d2be -->
<g id="edge17" class="edge">
<title>node_e3fbafac-&gt;node_18c5d2be</title>
<path fill="none" stroke="#f0e442" stroke-width="2" d="M677.3297,-301.4286C699.463,-301.4286 717.8596,-301.4286 717.8596,-301.4286 717.8596,-301.4286 717.8596,-118 717.8596,-118 717.8596,-118 995.8596,-118 995.8596,-118 995.8596,-118 995.8596,-118.581 995.8596,-118.581"/>
<polygon fill="#f0e442" stroke="#f0e442" stroke-width="2" points="992.3598,-113.8097 995.8596,-123.8097 999.3598,-113.8098 992.3598,-113.8097"/>
</g>
<!-- node_e3fbafac&#45;&gt;node_2e67b969 -->
<g id="edge18" class="edge">
<title>node_e3fbafac-&gt;node_2e67b969</title>
<path fill="none" stroke="#f0e442" stroke-width="2" d="M677.1067,-311.7143C704.9431,-311.7143 729.8596,-311.7143 729.8596,-311.7143 729.8596,-311.7143 729.8596,-404.2857 729.8596,-404.2857 729.8596,-404.2857 776.9671,-404.2857 776.9671,-404.2857"/>
<polygon fill="#f0e442" stroke="#f0e442" stroke-width="2" points="776.9672,-407.7858 786.9671,-404.2857 776.9671,-400.7858 776.9672,-407.7858"/>
</g>
<!-- node_fa2f4d30 -->
<g id="node27" class="node">
<title>node_fa2f4d30</title>
<path fill="#6db33f" stroke="#000000" d="M898.1257,-268C898.1257,-268 795.5055,-268 795.5055,-268 789.5055,-268 783.5055,-262 783.5055,-256 783.5055,-256 783.5055,-244 783.5055,-244 783.5055,-238 789.5055,-232 795.5055,-232 795.5055,-232 898.1257,-232 898.1257,-232 904.1257,-232 910.1257,-238 910.1257,-244 910.1257,-244 910.1257,-256 910.1257,-256 910.1257,-262 904.1257,-268 898.1257,-268"/>
<text text-anchor="middle" x="846.8156" y="-245.8" font-family="Times,serif" font-size="14.00" fill="#000000">91: getRandomInt()</text>
</g>
<!-- node_e3fbafac&#45;&gt;node_fa2f4d30 -->
<g id="edge19" class="edge">
<title>node_e3fbafac-&gt;node_fa2f4d30</title>
<path fill="none" stroke="#f0e442" stroke-width="2" d="M677.1749,-291.1429C690.8376,-291.1429 700.8596,-291.1429 700.8596,-291.1429 700.8596,-291.1429 700.8596,-250 700.8596,-250 700.8596,-250 773.2218,-250 773.2218,-250"/>
<polygon fill="#f0e442" stroke="#f0e442" stroke-width="2" points="773.2218,-253.5001 783.2218,-250 773.2217,-246.5001 773.2218,-253.5001"/>
</g>
<!-- node_e3fbafac&#45;&gt;node_ec0d5306 -->
<g id="edge20" class="edge">
<title>node_e3fbafac-&gt;node_ec0d5306</title>
<path fill="none" stroke="#f0e442" stroke-width="2" d="M677.2199,-316.8571C701.3061,-316.8571 721.8596,-316.8571 721.8596,-316.8571 721.8596,-316.8571 721.8596,-514 721.8596,-514 721.8596,-514 773.9715,-514 773.9715,-514"/>
<polygon fill="#f0e442" stroke="#f0e442" stroke-width="2" points="773.9716,-517.5001 783.9715,-514 773.9715,-510.5001 773.9716,-517.5001"/>
</g>
<!-- node_7e8b7cc6 -->
<g id="node29" class="node">
<title>node_7e8b7cc6</title>
<path fill="#cccccc" stroke="#000000" d="M919.371,-376C919.371,-376 774.2602,-376 774.2602,-376 768.2602,-376 762.2602,-370 762.2602,-364 762.2602,-364 762.2602,-352 762.2602,-352 762.2602,-346 768.2602,-340 774.2602,-340 774.2602,-340 919.371,-340 919.371,-340 925.371,-340 931.371,-346 931.371,-352 931.371,-352 931.371,-364 931.371,-364 931.371,-370 925.371,-376 919.371,-376"/>
<text text-anchor="middle" x="846.8156" y="-353.8" font-family="Times,serif" font-size="14.00" fill="#000000">45: getSEMRefreshDelay()</text>
</g>
<!-- node_e3fbafac&#45;&gt;node_7e8b7cc6 -->
<g id="edge21" class="edge">
<title>node_e3fbafac-&gt;node_7e8b7cc6</title>
<path fill="none" stroke="#f0e442" stroke-width="2" d="M677.0724,-306.5714C708.4982,-306.5714 737.8596,-306.5714 737.8596,-306.5714 737.8596,-306.5714 737.8596,-364 737.8596,-364 737.8596,-364 752.0405,-364 752.0405,-364"/>
<polygon fill="#f0e442" stroke="#f0e442" stroke-width="2" points="752.0405,-367.5001 762.0405,-364 752.0404,-360.5001 752.0405,-367.5001"/>
</g>
<!-- node_9bd843ec -->
<g id="node39" class="node">
<title>node_9bd843ec</title>
<path fill="#6db33f" stroke="#000000" d="M1333.3274,-133C1333.3274,-133 1247.9198,-133 1247.9198,-133 1241.9198,-133 1235.9198,-127 1235.9198,-121 1235.9198,-121 1235.9198,-109 1235.9198,-109 1235.9198,-103 1241.9198,-97 1247.9198,-97 1247.9198,-97 1333.3274,-97 1333.3274,-97 1339.3274,-97 1345.3274,-103 1345.3274,-109 1345.3274,-109 1345.3274,-121 1345.3274,-121 1345.3274,-127 1339.3274,-133 1333.3274,-133"/>
<text text-anchor="middle" x="1290.6236" y="-110.8" font-family="Times,serif" font-size="14.00" fill="#000000">535: toRadians()</text>
</g>
<!-- node_e3fbafac&#45;&gt;node_9bd843ec -->
<g id="edge22" class="edge">
<title>node_e3fbafac-&gt;node_9bd843ec</title>
<path fill="none" stroke="#f0e442" stroke-width="2" d="M677.2252,-296.2857C697.4638,-296.2857 713.8596,-296.2857 713.8596,-296.2857 713.8596,-296.2857 713.8596,-112 713.8596,-112 713.8596,-112 1225.8431,-112 1225.8431,-112"/>
<polygon fill="#f0e442" stroke="#f0e442" stroke-width="2" points="1225.8431,-115.5001 1235.8431,-112 1225.843,-108.5001 1225.8431,-115.5001"/>
</g>
<!-- node_d68785a0 -->
<g id="node10" class="node">
<title>node_d68785a0</title>
<path fill="#966f33" stroke="#000000" d="M88.0432,-403C88.0432,-403 27.9856,-403 27.9856,-403 21.9856,-403 15.9856,-397 15.9856,-391 15.9856,-391 15.9856,-379 15.9856,-379 15.9856,-373 21.9856,-367 27.9856,-367 27.9856,-367 88.0432,-367 88.0432,-367 94.0432,-367 100.0432,-373 100.0432,-379 100.0432,-379 100.0432,-391 100.0432,-391 100.0432,-397 94.0432,-403 88.0432,-403"/>
<text text-anchor="middle" x="58.0144" y="-380.8" font-family="Times,serif" font-size="14.00" fill="#000000">0: (global)()</text>
</g>
<!-- node_d68785a0&#45;&gt;node_fa665858 -->
<g id="edge23" class="edge">
<title>node_d68785a0-&gt;node_fa665858</title>
<path fill="none" stroke="#000000" stroke-width="2" d="M58.8596,-366.6229C58.8596,-294.402 58.8596,-34 58.8596,-34 58.8596,-34 528.3452,-34 528.3452,-34"/>
<polygon fill="#000000" stroke="#000000" stroke-width="2" points="528.3452,-37.5001 538.3452,-34 528.3451,-30.5001 528.3452,-37.5001"/>
</g>
<!-- node_ee72dc1e -->
<g id="node12" class="node">
<title>node_ee72dc1e</title>
<path fill="#cccccc" stroke="#000000" d="M273.5227,-403C273.5227,-403 147.8639,-403 147.8639,-403 141.8639,-403 135.8639,-397 135.8639,-391 135.8639,-391 135.8639,-379 135.8639,-379 135.8639,-373 141.8639,-367 147.8639,-367 147.8639,-367 273.5227,-367 273.5227,-367 279.5227,-367 285.5227,-373 285.5227,-379 285.5227,-379 285.5227,-391 285.5227,-391 285.5227,-397 279.5227,-403 273.5227,-403"/>
<text text-anchor="middle" x="210.6933" y="-380.8" font-family="Times,serif" font-size="14.00" fill="#000000">65: UpdateBaseImage()</text>
</g>
<!-- node_d68785a0&#45;&gt;node_ee72dc1e -->
<g id="edge24" class="edge">
<title>node_d68785a0-&gt;node_ee72dc1e</title>
<path fill="none" stroke="#000000" stroke-width="2" d="M100.1387,-385C100.1387,-385 125.8931,-385 125.8931,-385"/>
<polygon fill="#000000" stroke="#000000" stroke-width="2" points="125.8931,-388.5001 135.8931,-385 125.8931,-381.5001 125.8931,-388.5001"/>
</g>
<!-- node_11628c99 -->
<g id="node25" class="node">
<title>node_11628c99</title>
<path fill="#6db33f" stroke="#000000" d="M918.822,-1132C918.822,-1132 774.8092,-1132 774.8092,-1132 768.8092,-1132 762.8092,-1126 762.8092,-1120 762.8092,-1120 762.8092,-1108 762.8092,-1108 762.8092,-1102 768.8092,-1096 774.8092,-1096 774.8092,-1096 918.822,-1096 918.822,-1096 924.822,-1096 930.822,-1102 930.822,-1108 930.822,-1108 930.822,-1120 930.822,-1120 930.822,-1126 924.822,-1132 918.822,-1132"/>
<text text-anchor="middle" x="846.8156" y="-1109.8" font-family="Times,serif" font-size="14.00" fill="#000000">46: getGroundtruthImage()</text>
</g>
<!-- node_d68785a0&#45;&gt;node_11628c99 -->
<g id="edge25" class="edge">
<title>node_d68785a0-&gt;node_11628c99</title>
<path fill="none" stroke="#000000" stroke-width="2" d="M44.8596,-403.0203C44.8596,-515.2803 44.8596,-1114 44.8596,-1114 44.8596,-1114 752.508,-1114 752.508,-1114"/>
<polygon fill="#000000" stroke="#000000" stroke-width="2" points="752.508,-1117.5001 762.508,-1114 752.508,-1110.5001 752.508,-1117.5001"/>
</g>
<!-- node_7ee4c403 -->
<g id="node35" class="node">
<title>node_7ee4c403</title>
<path fill="#6db33f" stroke="#000000" d="M908.3192,-1078C908.3192,-1078 785.312,-1078 785.312,-1078 779.312,-1078 773.312,-1072 773.312,-1066 773.312,-1066 773.312,-1054 773.312,-1054 773.312,-1048 779.312,-1042 785.312,-1042 785.312,-1042 908.3192,-1042 908.3192,-1042 914.3192,-1042 920.3192,-1048 920.3192,-1054 920.3192,-1054 920.3192,-1066 920.3192,-1066 920.3192,-1072 914.3192,-1078 908.3192,-1078"/>
<text text-anchor="middle" x="846.8156" y="-1055.8" font-family="Times,serif" font-size="14.00" fill="#000000">2: newStageTemplate()</text>
</g>
<!-- node_d68785a0&#45;&gt;node_7ee4c403 -->
<g id="edge26" class="edge">
<title>node_d68785a0-&gt;node_7ee4c403</title>
<path fill="none" stroke="#000000" stroke-width="2" d="M72.8596,-403.0546C72.8596,-510.3986 72.8596,-1060 72.8596,-1060 72.8596,-1060 763.3059,-1060 763.3059,-1060"/>
<polygon fill="#000000" stroke="#000000" stroke-width="2" points="763.306,-1063.5001 773.3059,-1060 763.3059,-1056.5001 763.306,-1063.5001"/>
</g>
<!-- node_386176ec -->
<g id="node11" class="node">
<title>node_386176ec</title>
<path fill="#cccccc" stroke="#000000" d="M450.0289,-403C450.0289,-403 333.4673,-403 333.4673,-403 327.4673,-403 321.4673,-397 321.4673,-391 321.4673,-391 321.4673,-379 321.4673,-379 321.4673,-373 327.4673,-367 333.4673,-367 333.4673,-367 450.0289,-367 450.0289,-367 456.0289,-367 462.0289,-373 462.0289,-379 462.0289,-379 462.0289,-391 462.0289,-391 462.0289,-397 456.0289,-403 450.0289,-403"/>
<text text-anchor="middle" x="391.7481" y="-380.8" font-family="Times,serif" font-size="14.00" fill="#000000">75: OnImageLoaded()</text>
</g>
<!-- node_386176ec&#45;&gt;node_e0b781da -->
<g id="edge27" class="edge">
<title>node_386176ec-&gt;node_e0b781da</title>
<path fill="none" stroke="#f0e442" stroke-width="2" d="M434.8596,-403.3802C434.8596,-427.2785 434.8596,-466 434.8596,-466 434.8596,-466 521.5888,-466 521.5888,-466"/>
<polygon fill="#f0e442" stroke="#f0e442" stroke-width="2" points="521.5889,-469.5001 531.5888,-466 521.5888,-462.5001 521.5889,-469.5001"/>
</g>
<!-- node_386176ec&#45;&gt;node_4ef65244 -->
<g id="edge28" class="edge">
<title>node_386176ec-&gt;node_4ef65244</title>
<path fill="none" stroke="#f0e442" stroke-width="2" d="M368.8596,-366.7355C368.8596,-310.2231 368.8596,-142 368.8596,-142 368.8596,-142 507.1571,-142 507.1571,-142"/>
<polygon fill="#f0e442" stroke="#f0e442" stroke-width="2" points="507.1572,-145.5001 517.1571,-142 507.1571,-138.5001 507.1572,-145.5001"/>
</g>
<!-- node_386176ec&#45;&gt;node_7a5cbd7f -->
<g id="edge29" class="edge">
<title>node_386176ec-&gt;node_7a5cbd7f</title>
<path fill="none" stroke="#f0e442" stroke-width="2" d="M391.8596,-366.8779C391.8596,-319.5727 391.8596,-196 391.8596,-196 391.8596,-196 523.4678,-196 523.4678,-196"/>
<polygon fill="#f0e442" stroke="#f0e442" stroke-width="2" points="523.4678,-199.5001 533.4678,-196 523.4677,-192.5001 523.4678,-199.5001"/>
</g>
<!-- node_386176ec&#45;&gt;node_4bdb2de5 -->
<g id="edge30" class="edge">
<title>node_386176ec-&gt;node_4bdb2de5</title>
<path fill="none" stroke="#f0e442" stroke-width="2" d="M415.8596,-366.7933C415.8596,-329.9441 415.8596,-250 415.8596,-250 415.8596,-250 498.9185,-250 498.9185,-250"/>
<polygon fill="#f0e442" stroke="#f0e442" stroke-width="2" points="498.9186,-253.5001 508.9185,-250 498.9185,-246.5001 498.9186,-253.5001"/>
</g>
<!-- node_386176ec&#45;&gt;node_bd6d3e28 -->
<g id="edge31" class="edge">
<title>node_386176ec-&gt;node_bd6d3e28</title>
<path fill="none" stroke="#f0e442" stroke-width="2" d="M344.8596,-366.8684C344.8596,-302.3853 344.8596,-88 344.8596,-88 344.8596,-88 514.8337,-88 514.8337,-88"/>
<polygon fill="#f0e442" stroke="#f0e442" stroke-width="2" points="514.8337,-91.5001 524.8337,-88 514.8336,-84.5001 514.8337,-91.5001"/>
</g>
<!-- node_386176ec&#45;&gt;node_541a7b6a -->
<g id="edge32" class="edge">
<title>node_386176ec-&gt;node_541a7b6a</title>
<path fill="none" stroke="#f0e442" stroke-width="2" d="M462.0437,-371.5C462.0437,-371.5 488.029,-371.5 488.029,-371.5"/>
<polygon fill="#f0e442" stroke="#f0e442" stroke-width="2" points="488.0291,-375.0001 498.029,-371.5 488.029,-368.0001 488.0291,-375.0001"/>
</g>
<!-- node_386176ec&#45;&gt;node_63517f9f -->
<g id="edge33" class="edge">
<title>node_386176ec-&gt;node_63517f9f</title>
<path fill="none" stroke="#f0e442" stroke-width="2" d="M462.0437,-398.5C462.0437,-398.5 519.953,-398.5 519.953,-398.5"/>
<polygon fill="#f0e442" stroke="#f0e442" stroke-width="2" points="519.9531,-402.0001 529.953,-398.5 519.953,-395.0001 519.9531,-402.0001"/>
</g>
<!-- node_386176ec&#45;&gt;node_e3fbafac -->
<g id="edge34" class="edge">
<title>node_386176ec-&gt;node_e3fbafac</title>
<path fill="none" stroke="#f0e442" stroke-width="2" d="M438.8596,-366.6198C438.8596,-342.7215 438.8596,-304 438.8596,-304 438.8596,-304 516.6257,-304 516.6257,-304"/>
<polygon fill="#f0e442" stroke="#f0e442" stroke-width="2" points="516.6257,-307.5001 526.6257,-304 516.6257,-300.5001 516.6257,-307.5001"/>
</g>
<!-- node_1a788347 -->
<g id="node15" class="node">
<title>node_1a788347</title>
<path fill="#6db33f" stroke="#000000" d="M909.673,-808C909.673,-808 783.9582,-808 783.9582,-808 777.9582,-808 771.9582,-802 771.9582,-796 771.9582,-796 771.9582,-784 771.9582,-784 771.9582,-778 777.9582,-772 783.9582,-772 783.9582,-772 909.673,-772 909.673,-772 915.673,-772 921.673,-778 921.673,-784 921.673,-784 921.673,-796 921.673,-796 921.673,-802 915.673,-808 909.673,-808"/>
<text text-anchor="middle" x="846.8156" y="-785.8" font-family="Times,serif" font-size="14.00" fill="#000000">140: computeCellSize()</text>
</g>
<!-- node_386176ec&#45;&gt;node_1a788347 -->
<g id="edge35" class="edge">
<title>node_386176ec-&gt;node_1a788347</title>
<path fill="none" stroke="#f0e442" stroke-width="2" d="M377.8596,-403.1888C377.8596,-481.9948 377.8596,-790 377.8596,-790 377.8596,-790 761.9896,-790 761.9896,-790"/>
<polygon fill="#f0e442" stroke="#f0e442" stroke-width="2" points="761.9896,-793.5001 771.9896,-790 761.9895,-786.5001 761.9896,-793.5001"/>
</g>
<!-- node_386176ec&#45;&gt;node_2e67b969 -->
<g id="edge36" class="edge">
<title>node_386176ec-&gt;node_2e67b969</title>
<path fill="none" stroke="#f0e442" stroke-width="2" d="M462.3599,-382C590.1923,-382 846.8596,-382 846.8596,-382 846.8596,-382 846.8596,-383.8568 846.8596,-383.8568"/>
<polygon fill="#f0e442" stroke="#f0e442" stroke-width="2" points="843.3597,-383.8568 846.8596,-393.8568 850.3597,-383.8568 843.3597,-383.8568"/>
</g>
<!-- node_386176ec&#45;&gt;node_ec0d5306 -->
<g id="edge38" class="edge">
<title>node_386176ec-&gt;node_ec0d5306</title>
<path fill="none" stroke="#f0e442" stroke-width="2" d="M405.8596,-403.0251C405.8596,-442.2783 405.8596,-532 405.8596,-532 405.8596,-532 774.1057,-532 774.1057,-532"/>
<polygon fill="#f0e442" stroke="#f0e442" stroke-width="2" points="774.1057,-535.5001 784.1057,-532 774.1056,-528.5001 774.1057,-535.5001"/>
</g>
<!-- node_f2e496d7 -->
<g id="node40" class="node">
<title>node_f2e496d7</title>
<path fill="#6db33f" stroke="#000000" d="M939.2587,-970C939.2587,-970 754.3725,-970 754.3725,-970 748.3725,-970 742.3725,-964 742.3725,-958 742.3725,-958 742.3725,-946 742.3725,-946 742.3725,-940 748.3725,-934 754.3725,-934 754.3725,-934 939.2587,-934 939.2587,-934 945.2587,-934 951.2587,-940 951.2587,-946 951.2587,-946 951.2587,-958 951.2587,-958 951.2587,-964 945.2587,-970 939.2587,-970"/>
<text text-anchor="middle" x="846.8156" y="-947.8" font-family="Times,serif" font-size="14.00" fill="#000000">107: updateDisplayBeamParams()</text>
</g>
<!-- node_386176ec&#45;&gt;node_f2e496d7 -->
<g id="edge40" class="edge">
<title>node_386176ec-&gt;node_f2e496d7</title>
<path fill="none" stroke="#f0e442" stroke-width="2" d="M462.1325,-388C565.4021,-388 745.8596,-388 745.8596,-388 745.8596,-388 745.8596,-923.8735 745.8596,-923.8735"/>
<polygon fill="#f0e442" stroke="#f0e442" stroke-width="2" points="742.3597,-923.8735 745.8596,-933.8735 749.3597,-923.8735 742.3597,-923.8735"/>
</g>
<!-- node_9a345fa3 -->
<g id="node41" class="node">
<title>node_9a345fa3</title>
<path fill="#cccccc" stroke="#000000" d="M904.8276,-916C904.8276,-916 788.8036,-916 788.8036,-916 782.8036,-916 776.8036,-910 776.8036,-904 776.8036,-904 776.8036,-892 776.8036,-892 776.8036,-886 782.8036,-880 788.8036,-880 788.8036,-880 904.8276,-880 904.8276,-880 910.8276,-880 916.8276,-886 916.8276,-892 916.8276,-892 916.8276,-904 916.8276,-904 916.8276,-910 910.8276,-916 904.8276,-916"/>
<text text-anchor="middle" x="846.8156" y="-893.8" font-family="Times,serif" font-size="14.00" fill="#000000">156: updateMagInfo()</text>
</g>
<!-- node_386176ec&#45;&gt;node_9a345fa3 -->
<g id="edge41" class="edge">
<title>node_386176ec-&gt;node_9a345fa3</title>
<path fill="none" stroke="#f0e442" stroke-width="2" d="M349.8596,-403.2579C349.8596,-494.6434 349.8596,-898 349.8596,-898 349.8596,-898 766.668,-898 766.668,-898"/>
<polygon fill="#f0e442" stroke="#f0e442" stroke-width="2" points="766.668,-901.5001 776.668,-898 766.6679,-894.5001 766.668,-901.5001"/>
</g>
<!-- node_ee72dc1e&#45;&gt;node_386176ec -->
<g id="edge42" class="edge">
<title>node_ee72dc1e-&gt;node_386176ec</title>
<path fill="none" stroke="#d55e00" stroke-width="2" d="M285.3805,-385C285.3805,-385 311.3061,-385 311.3061,-385"/>
<polygon fill="#d55e00" stroke="#d55e00" stroke-width="2" points="311.3062,-388.5001 321.3061,-385 311.3061,-381.5001 311.3062,-388.5001"/>
</g>
<!-- node_ea9e9783 -->
<g id="node34" class="node">
<title>node_ea9e9783</title>
<path fill="#6db33f" stroke="#000000" d="M887.6132,-1024C887.6132,-1024 806.018,-1024 806.018,-1024 800.018,-1024 794.018,-1018 794.018,-1012 794.018,-1012 794.018,-1000 794.018,-1000 794.018,-994 800.018,-988 806.018,-988 806.018,-988 887.6132,-988 887.6132,-988 893.6132,-988 899.6132,-994 899.6132,-1000 899.6132,-1000 899.6132,-1012 899.6132,-1012 899.6132,-1018 893.6132,-1024 887.6132,-1024"/>
<text text-anchor="middle" x="846.8156" y="-1001.8" font-family="Times,serif" font-size="14.00" fill="#000000">25: loadImage()</text>
</g>
<!-- node_ee72dc1e&#45;&gt;node_ea9e9783 -->
<g id="edge43" class="edge">
<title>node_ee72dc1e-&gt;node_ea9e9783</title>
<path fill="none" stroke="#d55e00" stroke-width="2" d="M210.8596,-403.249C210.8596,-505.8242 210.8596,-1006 210.8596,-1006 210.8596,-1006 783.9602,-1006 783.9602,-1006"/>
<polygon fill="#d55e00" stroke="#d55e00" stroke-width="2" points="783.9602,-1009.5001 793.9602,-1006 783.9602,-1002.5001 783.9602,-1009.5001"/>
</g>
<!-- node_18c5d2be&#45;&gt;node_c1f65bc3 -->
<g id="edge44" class="edge">
<title>node_18c5d2be-&gt;node_c1f65bc3</title>
<path fill="none" stroke="#d55e00" stroke-width="2" d="M1178.2894,-146.5C1205.9464,-146.5 1228.8596,-146.5 1228.8596,-146.5 1228.8596,-146.5 1228.8596,-815.7021 1228.8596,-815.7021"/>
<polygon fill="#d55e00" stroke="#d55e00" stroke-width="2" points="1225.3597,-815.7021 1228.8596,-825.7021 1232.3597,-815.7021 1225.3597,-815.7021"/>
</g>
<!-- node_18c5d2be&#45;&gt;node_9bd843ec -->
<g id="edge45" class="edge">
<title>node_18c5d2be-&gt;node_9bd843ec</title>
<path fill="none" stroke="#d55e00" stroke-width="2" d="M1178.3592,-128.5C1178.3592,-128.5 1225.8599,-128.5 1225.8599,-128.5"/>
<polygon fill="#d55e00" stroke="#d55e00" stroke-width="2" points="1225.8599,-132.0001 1235.8599,-128.5 1225.8598,-125.0001 1225.8599,-132.0001"/>
</g>
<!-- node_726f7e4b -->
<g id="node37" class="node">
<title>node_726f7e4b</title>
<path fill="#6db33f" stroke="#000000" d="M1160.4939,-214C1160.4939,-214 1005.7083,-214 1005.7083,-214 999.7083,-214 993.7083,-208 993.7083,-202 993.7083,-202 993.7083,-190 993.7083,-190 993.7083,-184 999.7083,-178 1005.7083,-178 1005.7083,-178 1160.4939,-178 1160.4939,-178 1166.4939,-178 1172.4939,-184 1172.4939,-190 1172.4939,-190 1172.4939,-202 1172.4939,-202 1172.4939,-208 1166.4939,-214 1160.4939,-214"/>
<text text-anchor="middle" x="1083.1011" y="-191.8" font-family="Times,serif" font-size="14.00" fill="#000000">195: scaleCenteredOnPoint()</text>
</g>
<!-- node_bcfebda8&#45;&gt;node_726f7e4b -->
<g id="edge46" class="edge">
<title>node_bcfebda8-&gt;node_726f7e4b</title>
<path fill="none" stroke="#000000" stroke-width="2" d="M925.7367,-148C935.3494,-148 941.8596,-148 941.8596,-148 941.8596,-148 941.8596,-202 941.8596,-202 941.8596,-202 983.6507,-202 983.6507,-202"/>
<polygon fill="#000000" stroke="#000000" stroke-width="2" points="983.6507,-205.5001 993.6507,-202 983.6507,-198.5001 983.6507,-205.5001"/>
</g>
<!-- node_0ddbf337 -->
<g id="node16" class="node">
<title>node_0ddbf337</title>
<path fill="#6db33f" stroke="#000000" d="M1151.0555,-808C1151.0555,-808 1015.1467,-808 1015.1467,-808 1009.1467,-808 1003.1467,-802 1003.1467,-796 1003.1467,-796 1003.1467,-784 1003.1467,-784 1003.1467,-778 1009.1467,-772 1015.1467,-772 1015.1467,-772 1151.0555,-772 1151.0555,-772 1157.0555,-772 1163.0555,-778 1163.0555,-784 1163.0555,-784 1163.0555,-796 1163.0555,-796 1163.0555,-802 1157.0555,-808 1151.0555,-808"/>
<text text-anchor="middle" x="1083.1011" y="-785.8" font-family="Times,serif" font-size="14.00" fill="#000000">150: computeMagLevel()</text>
</g>
<!-- node_7af09107 -->
<g id="node17" class="node">
<title>node_7af09107</title>
<path fill="#966f33" stroke="#000000" d="M1165.0625,-862C1165.0625,-862 1001.1397,-862 1001.1397,-862 995.1397,-862 989.1397,-856 989.1397,-850 989.1397,-850 989.1397,-838 989.1397,-838 989.1397,-832 995.1397,-826 1001.1397,-826 1001.1397,-826 1165.0625,-826 1165.0625,-826 1171.0625,-826 1177.0625,-832 1177.0625,-838 1177.0625,-838 1177.0625,-850 1177.0625,-850 1177.0625,-856 1171.0625,-862 1165.0625,-862"/>
<text text-anchor="middle" x="1083.1011" y="-839.8" font-family="Times,serif" font-size="14.00" fill="#000000">366: computeResampledFast()</text>
</g>
<!-- node_7af09107&#45;&gt;node_ecfc12b5 -->
<g id="edge47" class="edge">
<title>node_7af09107-&gt;node_ecfc12b5</title>
<path fill="none" stroke="#cc79a7" stroke-width="2" d="M1167.8596,-825.8581C1167.8596,-764.3442 1167.8596,-567.5 1167.8596,-567.5 1167.8596,-567.5 1226.7775,-567.5 1226.7775,-567.5"/>
<polygon fill="#cc79a7" stroke="#cc79a7" stroke-width="2" points="1226.7776,-571.0001 1236.7775,-567.5 1226.7775,-564.0001 1226.7776,-571.0001"/>
</g>
<!-- node_7af09107&#45;&gt;node_c1f65bc3 -->
<g id="edge48" class="edge">
<title>node_7af09107-&gt;node_c1f65bc3</title>
<path fill="none" stroke="#cc79a7" stroke-width="2" d="M1176.8446,-844C1176.8446,-844 1204.0799,-844 1204.0799,-844"/>
<polygon fill="#cc79a7" stroke="#cc79a7" stroke-width="2" points="1204.0799,-847.5001 1214.0799,-844 1204.0798,-840.5001 1204.0799,-847.5001"/>
</g>
<!-- node_ec2f62f2&#45;&gt;node_e5c08a68 -->
<g id="edge49" class="edge">
<title>node_ec2f62f2-&gt;node_e5c08a68</title>
<path fill="none" stroke="#56b4e9" stroke-width="2" d="M935.8596,-285.8328C935.8596,-232.8127 935.8596,-82 935.8596,-82 935.8596,-82 992.1578,-82 992.1578,-82"/>
<polygon fill="#56b4e9" stroke="#56b4e9" stroke-width="2" points="992.1578,-85.5001 1002.1578,-82 992.1578,-78.5001 992.1578,-85.5001"/>
</g>
<!-- node_5795ced3&#45;&gt;node_18c5d2be -->
<g id="edge50" class="edge">
<title>node_5795ced3-&gt;node_18c5d2be</title>
<path fill="none" stroke="#009e73" stroke-width="2" d="M943.4636,-466C958.872,-466 969.8596,-466 969.8596,-466 969.8596,-466 969.8596,-136 969.8596,-136 969.8596,-136 977.8031,-136 977.8031,-136"/>
<polygon fill="#009e73" stroke="#009e73" stroke-width="2" points="977.8031,-139.5001 987.8031,-136 977.803,-132.5001 977.8031,-139.5001"/>
</g>
<!-- node_3c61d586 -->
<g id="node22" class="node">
<title>node_3c61d586</title>
<path fill="#966f33" stroke="#000000" d="M898.1229,-592C898.1229,-592 795.5083,-592 795.5083,-592 789.5083,-592 783.5083,-586 783.5083,-580 783.5083,-580 783.5083,-568 783.5083,-568 783.5083,-562 789.5083,-556 795.5083,-556 795.5083,-556 898.1229,-556 898.1229,-556 904.1229,-556 910.1229,-562 910.1229,-568 910.1229,-568 910.1229,-580 910.1229,-580 910.1229,-586 904.1229,-592 898.1229,-592"/>
<text text-anchor="middle" x="846.8156" y="-569.8" font-family="Times,serif" font-size="14.00" fill="#000000">41: getCellHInput()</text>
</g>
<!-- node_7f30dd79 -->
<g id="node26" class="node">
<title>node_7f30dd79</title>
<path fill="#6db33f" stroke="#000000" d="M1142.4473,-619C1142.4473,-619 1023.7549,-619 1023.7549,-619 1017.7549,-619 1011.7549,-613 1011.7549,-607 1011.7549,-607 1011.7549,-595 1011.7549,-595 1011.7549,-589 1017.7549,-583 1023.7549,-583 1023.7549,-583 1142.4473,-583 1142.4473,-583 1148.4473,-583 1154.4473,-589 1154.4473,-595 1154.4473,-595 1154.4473,-607 1154.4473,-607 1154.4473,-613 1148.4473,-619 1142.4473,-619"/>
<text text-anchor="middle" x="1083.1011" y="-596.8" font-family="Times,serif" font-size="14.00" fill="#000000">31: getInputValueInt()</text>
</g>
<!-- node_3c61d586&#45;&gt;node_7f30dd79 -->
<g id="edge51" class="edge">
<title>node_3c61d586-&gt;node_7f30dd79</title>
<path fill="none" stroke="#d55e00" stroke-width="2" d="M910.1358,-587.5C910.1358,-587.5 1001.6793,-587.5 1001.6793,-587.5"/>
<polygon fill="#d55e00" stroke="#d55e00" stroke-width="2" points="1001.6793,-591.0001 1011.6793,-587.5 1001.6792,-584.0001 1001.6793,-591.0001"/>
</g>
<!-- node_42b61c62 -->
<g id="node23" class="node">
<title>node_42b61c62</title>
<path fill="#966f33" stroke="#000000" d="M899.7308,-862C899.7308,-862 793.9004,-862 793.9004,-862 787.9004,-862 781.9004,-856 781.9004,-850 781.9004,-850 781.9004,-838 781.9004,-838 781.9004,-832 787.9004,-826 793.9004,-826 793.9004,-826 899.7308,-826 899.7308,-826 905.7308,-826 911.7308,-832 911.7308,-838 911.7308,-838 911.7308,-850 911.7308,-850 911.7308,-856 905.7308,-862 899.7308,-862"/>
<text text-anchor="middle" x="846.8156" y="-839.8" font-family="Times,serif" font-size="14.00" fill="#000000">40: getCellWInput()</text>
</g>
<!-- node_42b61c62&#45;&gt;node_7f30dd79 -->
<g id="edge52" class="edge">
<title>node_42b61c62-&gt;node_7f30dd79</title>
<path fill="none" stroke="#56b4e9" stroke-width="2" d="M911.7887,-844C922.8561,-844 930.8596,-844 930.8596,-844 930.8596,-844 930.8596,-616.75 930.8596,-616.75 930.8596,-616.75 1001.8836,-616.75 1001.8836,-616.75"/>
<polygon fill="#56b4e9" stroke="#56b4e9" stroke-width="2" points="1001.8836,-620.2501 1011.8836,-616.75 1001.8835,-613.2501 1001.8836,-620.2501"/>
</g>
<!-- node_2e67b969&#45;&gt;node_7f30dd79 -->
<g id="edge53" class="edge">
<title>node_2e67b969-&gt;node_7f30dd79</title>
<path fill="none" stroke="#e69f00" stroke-width="2" d="M906.6318,-412C976.8541,-412 1083.8596,-412 1083.8596,-412 1083.8596,-412 1083.8596,-572.8779 1083.8596,-572.8779"/>
<polygon fill="#e69f00" stroke="#e69f00" stroke-width="2" points="1080.3597,-572.8779 1083.8596,-582.8779 1087.3597,-572.8779 1080.3597,-572.8779"/>
</g>
<!-- node_ec0d5306&#45;&gt;node_7f30dd79 -->
<g id="edge54" class="edge">
<title>node_ec0d5306-&gt;node_7f30dd79</title>
<path fill="none" stroke="#d55e00" stroke-width="2" d="M909.6002,-520C968.5888,-520 1047.8596,-520 1047.8596,-520 1047.8596,-520 1047.8596,-572.6198 1047.8596,-572.6198"/>
<polygon fill="#d55e00" stroke="#d55e00" stroke-width="2" points="1044.3597,-572.6198 1047.8596,-582.6198 1051.3597,-572.6199 1044.3597,-572.6198"/>
</g>
<!-- node_7e8b7cc6&#45;&gt;node_7f30dd79 -->
<g id="edge55" class="edge">
<title>node_7e8b7cc6-&gt;node_7f30dd79</title>
<path fill="none" stroke="#d55e00" stroke-width="2" d="M931.4008,-358C1011.2599,-358 1118.8596,-358 1118.8596,-358 1118.8596,-358 1118.8596,-572.7355 1118.8596,-572.7355"/>
<polygon fill="#d55e00" stroke="#d55e00" stroke-width="2" points="1115.3597,-572.7355 1118.8596,-582.7355 1122.3597,-572.7355 1115.3597,-572.7355"/>
</g>
<!-- node_c9290ab3 -->
<g id="node30" class="node">
<title>node_c9290ab3</title>
<path fill="#966f33" stroke="#000000" d="M911.569,-754C911.569,-754 782.0622,-754 782.0622,-754 776.0622,-754 770.0622,-748 770.0622,-742 770.0622,-742 770.0622,-730 770.0622,-730 770.0622,-724 776.0622,-718 782.0622,-718 782.0622,-718 911.569,-718 911.569,-718 917.569,-718 923.569,-724 923.569,-730 923.569,-730 923.569,-742 923.569,-742 923.569,-748 917.569,-754 911.569,-754"/>
<text text-anchor="middle" x="846.8156" y="-731.8" font-family="Times,serif" font-size="14.00" fill="#000000">44: getSpotAngleInput()</text>
</g>
<!-- node_c9290ab3&#45;&gt;node_7f30dd79 -->
<g id="edge56" class="edge">
<title>node_c9290ab3-&gt;node_7f30dd79</title>
<path fill="none" stroke="#009e73" stroke-width="2" d="M917.8596,-717.8102C917.8596,-683.9158 917.8596,-614.5 917.8596,-614.5 917.8596,-614.5 1001.5848,-614.5 1001.5848,-614.5"/>
<polygon fill="#009e73" stroke="#009e73" stroke-width="2" points="1001.5849,-618.0001 1011.5848,-614.5 1001.5848,-611.0001 1001.5849,-618.0001"/>
</g>
<!-- node_c8c2d532 -->
<g id="node31" class="node">
<title>node_c8c2d532</title>
<path fill="#966f33" stroke="#000000" d="M899.4637,-700C899.4637,-700 794.1675,-700 794.1675,-700 788.1675,-700 782.1675,-694 782.1675,-688 782.1675,-688 782.1675,-676 782.1675,-676 782.1675,-670 788.1675,-664 794.1675,-664 794.1675,-664 899.4637,-664 899.4637,-664 905.4637,-664 911.4637,-670 911.4637,-676 911.4637,-676 911.4637,-688 911.4637,-688 911.4637,-694 905.4637,-700 899.4637,-700"/>
<text text-anchor="middle" x="846.8156" y="-677.8" font-family="Times,serif" font-size="14.00" fill="#000000">42: getSpotXInput()</text>
</g>
<!-- node_c8c2d532&#45;&gt;node_7f30dd79 -->
<g id="edge57" class="edge">
<title>node_c8c2d532-&gt;node_7f30dd79</title>
<path fill="none" stroke="#56b4e9" stroke-width="2" d="M911.5889,-682C981.7733,-682 1083.8596,-682 1083.8596,-682 1083.8596,-682 1083.8596,-629.3802 1083.8596,-629.3802"/>
<polygon fill="#56b4e9" stroke="#56b4e9" stroke-width="2" points="1087.3597,-629.3801 1083.8596,-619.3802 1080.3597,-629.3802 1087.3597,-629.3801"/>
</g>
<!-- node_f719bfab -->
<g id="node32" class="node">
<title>node_f719bfab</title>
<path fill="#966f33" stroke="#000000" d="M899.4637,-646C899.4637,-646 794.1675,-646 794.1675,-646 788.1675,-646 782.1675,-640 782.1675,-634 782.1675,-634 782.1675,-622 782.1675,-622 782.1675,-616 788.1675,-610 794.1675,-610 794.1675,-610 899.4637,-610 899.4637,-610 905.4637,-610 911.4637,-616 911.4637,-622 911.4637,-622 911.4637,-634 911.4637,-634 911.4637,-640 905.4637,-646 899.4637,-646"/>
<text text-anchor="middle" x="846.8156" y="-623.8" font-family="Times,serif" font-size="14.00" fill="#000000">43: getSpotYInput()</text>
</g>
<!-- node_f719bfab&#45;&gt;node_7f30dd79 -->
<g id="edge58" class="edge">
<title>node_f719bfab-&gt;node_7f30dd79</title>
<path fill="none" stroke="#009e73" stroke-width="2" d="M911.6942,-612.25C911.6942,-612.25 1001.725,-612.25 1001.725,-612.25"/>
<polygon fill="#009e73" stroke="#009e73" stroke-width="2" points="1001.725,-615.7501 1011.725,-612.25 1001.725,-608.7501 1001.725,-615.7501"/>
</g>
<!-- node_c51c7237&#45;&gt;node_726f7e4b -->
<g id="edge59" class="edge">
<title>node_c51c7237-&gt;node_726f7e4b</title>
<path fill="none" stroke="#cc79a7" stroke-width="2" d="M914.93,-94C932.644,-94 946.8596,-94 946.8596,-94 946.8596,-94 946.8596,-190 946.8596,-190 946.8596,-190 983.3651,-190 983.3651,-190"/>
<polygon fill="#cc79a7" stroke="#cc79a7" stroke-width="2" points="983.3652,-193.5001 993.3651,-190 983.3651,-186.5001 983.3652,-193.5001"/>
</g>
<!-- node_9a345fa3&#45;&gt;node_0ddbf337 -->
<g id="edge60" class="edge">
<title>node_9a345fa3-&gt;node_0ddbf337</title>
<path fill="none" stroke="#009e73" stroke-width="2" d="M916.8759,-898C928.5004,-898 936.8596,-898 936.8596,-898 936.8596,-898 936.8596,-790 936.8596,-790 936.8596,-790 993.1342,-790 993.1342,-790"/>
<polygon fill="#009e73" stroke="#009e73" stroke-width="2" points="993.1342,-793.5001 1003.1342,-790 993.1342,-786.5001 993.1342,-793.5001"/>
</g>
</g>
</svg>